<svg width="343" height="208" viewBox="0 0 343 208" fill="none" xmlns="http://www.w3.org/2000/svg">
<rect y="30" width="343" height="177" fill="#A4E9FB"/>
<rect x="211.773" y="155.169" width="0.495971" height="48.8532" fill="#3F3D56"/>
<path d="M212.021 104.022V154.556C214.33 149.52 217.783 145.093 222.104 141.627C222.191 141.555 222.28 141.485 222.368 141.417C223.247 140.723 224.159 140.072 225.103 139.464C225.164 139.425 225.226 139.385 225.287 139.348C230.969 135.731 237.568 133.815 244.303 133.826H281.906V104.022H212.021Z" fill="white"/>
<rect opacity="0.1" x="278.936" y="121.458" width="5.75877" height="5.75877" transform="rotate(-180 278.936 121.458)" fill="black"/>
<rect x="262.213" y="114.26" width="47.2884" height="1.43969" transform="rotate(-180 262.213 114.26)" fill="#F2F2F2"/>
<rect x="262.213" y="117.914" width="47.2884" height="1.43969" transform="rotate(-180 262.213 117.914)" fill="#F2F2F2"/>
<rect x="262.213" y="121.569" width="47.2884" height="1.43969" transform="rotate(-180 262.213 121.569)" fill="#F2F2F2"/>
<path fill-rule="evenodd" clip-rule="evenodd" d="M279.047 112.709H270.188V121.569H279.047V112.709ZM270.409 112.931H278.826V121.347H270.409V112.931Z" fill="#F2F2F2"/>
<path d="M274.633 119.105L271.873 115.885L272.306 115.514L274.587 118.174L280.654 109.488L281.122 109.814L274.633 119.105V119.105Z" fill="#204DD4"/>
<path d="M212.021 160.873C215.171 160.873 217.725 158.319 217.725 155.169C217.725 152.019 215.171 149.465 212.021 149.465C208.871 149.465 206.317 152.019 206.317 155.169C206.317 158.319 208.871 160.873 212.021 160.873Z" fill="#204DD4"/>
<rect x="98.4434" y="154.673" width="0.495971" height="48.8532" fill="#3F3D56"/>
<rect x="126.218" y="8.15454" width="0.495971" height="198.853" fill="#3F3D56"/>
<path d="M225.928 207.006H79.1201C79.1201 207.006 76.1443 171.552 93.7513 171.149C111.358 170.746 109.374 186.862 131.445 164.703C153.516 142.544 180.298 143.753 183.77 156.847C187.242 169.941 177.074 180.416 195.673 177.192C214.272 173.969 241.055 182.43 225.928 207.006Z" fill="#204DD4"/>
<path d="M150.045 206.014L149.55 205.998C150.705 182.655 156.724 167.658 161.569 159.187C166.829 149.989 171.899 146.265 171.95 146.229L172.279 146.53C172.229 146.566 167.219 150.252 162 159.388C157.182 167.823 151.197 182.76 150.045 206.014Z" fill="#F2F2F2"/>
<path d="M203.179 206.062L202.703 205.95C208.436 189.964 221.937 179.872 222.073 179.772L222.406 180.07C222.271 180.169 208.871 190.19 203.179 206.062Z" fill="#F2F2F2"/>
<path d="M102.243 206.034L101.751 205.978C103.321 197.123 101.592 187.999 96.8925 180.331C93.3301 174.473 89.2653 171.273 89.2246 171.242L89.5678 170.951C89.6091 170.983 93.7367 174.232 97.3372 180.152C102.08 187.89 103.825 197.097 102.243 206.034Z" fill="#F2F2F2"/>
<rect x="166.108" y="52.0938" width="20.9779" height="26.0634" fill="#2F2E41"/>
<path d="M196.62 120.367C196.62 120.367 203.635 130.57 200.127 133.121C196.62 135.672 193.112 121.961 193.112 121.961L196.62 120.367Z" fill="#FFB8B8"/>
<path d="M197.896 121.643L192.475 123.875L184.185 99.0035L184.325 97.8715L187.373 73.4946C187.373 73.4946 189.519 73.3001 190.606 74.7414C190.951 75.2166 191.157 75.7787 191.2 76.3644C191.518 79.553 189.924 97.0903 189.924 97.0903C189.924 97.0903 190.243 99.0035 190.562 99.6412C190.881 100.279 191.518 99.9601 191.2 100.917C190.881 101.873 190.243 101.873 190.562 102.192C190.814 102.483 191.028 102.804 191.2 103.149L197.896 121.643Z" fill="white"/>
<path d="M151.979 133.122L142.732 154.804C142.732 154.804 137.312 166.283 134.442 180.951L130.935 190.835L136.993 192.111L138.587 189.56L139.863 183.502C139.863 183.502 150.385 167.559 151.023 159.587L168.56 135.672L151.979 133.122Z" fill="#FFB8B8"/>
<path d="M176.213 135.354V158.949C176.213 158.949 174.3 173.298 174.937 179.994V192.749H179.72C179.72 192.749 179.72 187.328 180.677 185.415C181.633 183.502 187.054 163.732 185.46 156.717L190.561 133.122L176.213 135.354Z" fill="#FFB8B8"/>
<path d="M176.532 63.6098C181.286 63.6098 185.141 59.7553 185.141 55.0006C185.141 50.2458 181.286 46.3914 176.532 46.3914C171.777 46.3914 167.922 50.2458 167.922 55.0006C167.922 59.7553 171.777 63.6098 176.532 63.6098Z" fill="#FFB8B8"/>
<path d="M170.155 57.8704C170.155 57.8704 170.474 67.755 169.517 69.0305C168.56 70.3059 181.315 72.2191 181.315 72.2191C181.315 72.2191 177.17 63.9287 180.039 61.059L170.155 57.8704Z" fill="#FFB8B8"/>
<path opacity="0.1" d="M186.416 91.3507C186.416 91.3507 186.098 94.2205 187.054 95.4959C188.011 96.7714 185.938 97.8874 185.938 97.8874C185.284 97.779 185.651 97.8842 184.325 97.8714L187.373 73.4945C187.373 73.4945 188.039 72.8505 189.127 74.2917C189.146 76.6545 187.692 82.7415 187.692 82.7415C189.924 88.481 186.416 91.3507 186.416 91.3507Z" fill="black"/>
<path d="M180.358 66.7984C180.358 66.7984 170.155 64.2475 169.517 64.5664C168.879 64.8853 168.56 68.3927 168.56 68.3927C168.56 68.3927 158.038 67.4361 158.995 70.9436C159.951 74.4511 164.415 98.6845 164.415 98.6845C164.415 98.6845 182.59 97.4091 186.417 98.0468C186.782 97.2017 186.66 96.2251 186.098 95.4959C185.141 94.2204 185.46 91.3507 185.46 91.3507C185.46 91.3507 188.967 88.481 186.735 82.7415C186.735 82.7415 190.881 74.7699 189.286 73.8134C187.692 72.8568 181.634 70.9436 181.634 70.9436C181.634 70.9436 181.634 66.4796 180.358 66.7984Z" fill="white"/>
<path d="M164.734 97.7281L159.313 117.816C159.313 117.816 145.283 131.846 150.385 134.078C155.487 136.31 175.256 140.137 178.764 137.586C182.271 135.035 180.039 134.397 184.503 135.035C188.967 135.672 196.939 135.035 196.939 132.484C196.939 129.933 185.779 96.7715 185.779 96.7715L164.734 97.7281Z" fill="#2F2E41"/>
<path d="M136.037 188.922C136.037 188.922 131.891 187.009 130.935 188.284C129.978 189.56 120.731 205.184 125.833 206.141C130.935 207.097 136.037 204.546 136.674 201.677C137.312 198.807 141.138 193.705 141.138 193.705C141.138 193.705 145.271 188.902 139.697 184.289C139.697 184.289 138.587 188.922 136.037 188.922Z" fill="#2F2E41"/>
<path d="M173.024 192.111C173.024 192.111 177.17 187.965 180.358 192.111C180.358 192.111 185.141 207.097 177.807 206.778C170.474 206.459 171.43 203.59 171.43 203.59L173.024 192.111Z" fill="#2F2E41"/>
<path d="M149.747 119.41C149.747 119.41 144.008 132.484 148.153 132.803C152.298 133.121 153.255 120.686 153.255 120.686L149.747 119.41Z" fill="#FFB8B8"/>
<path d="M161.705 68.5522C161.705 68.5522 157.081 69.0305 156.763 71.5814C156.444 74.1323 154.212 93.5828 154.212 93.5828L148.472 120.367L154.531 121.643C154.531 121.643 158.676 104.743 160.908 102.192L162.821 84.6547L161.705 68.5522Z" fill="white"/>
<path d="M177.965 41.2966C177.965 41.2966 169.701 40.7843 167.794 45.9233C165.887 51.0622 162.55 53.7601 162.55 53.7601C162.55 53.7601 157.293 57.4145 159.921 63.9381C159.921 63.9381 151.743 69.4339 157.146 74.3159C157.146 74.3159 156.829 79.1978 160.007 82.5382C160.007 82.5382 162.55 83.8229 161.596 84.5937C160.643 85.3646 167.953 84.8507 167.317 77.9131C166.682 70.9756 170.973 66.0887 170.973 66.0887C170.973 66.0887 166.841 57.0939 168.748 54.0105C169.906 52.1385 170.403 50.7424 171.364 49.9345C171.899 49.4953 172.396 49.0108 172.848 48.4864C173.723 47.3803 175.186 46.9238 176.535 47.3365C179.396 48.1073 180.031 50.4198 180.031 50.4198C180.031 50.4198 182.097 55.9442 185.594 58.5137C189.09 61.0831 182.892 65.5797 182.892 65.5797C182.892 65.5797 183.969 70.8737 186.768 74.008C189.567 77.1423 185.961 79.8743 185.753 80.2256C185.276 81.0274 183.372 86.0906 191.237 86.113C191.237 86.113 193.063 82.2812 195.606 79.9687C198.149 77.6562 196.241 70.9756 196.241 70.9756C196.241 70.9756 200.056 68.663 195.924 63.0102C195.924 63.0102 197.195 57.8713 193.699 54.531C193.699 54.531 188.772 39.498 177.965 41.2966Z" fill="#2F2E41"/>
<path d="M168.589 54.6172C169.027 54.6172 169.383 54.048 169.383 53.3458C169.383 52.6437 169.027 52.0745 168.589 52.0745C168.15 52.0745 167.794 52.6437 167.794 53.3458C167.794 54.048 168.15 54.6172 168.589 54.6172Z" fill="#FFB8B8"/>
<path d="M126.466 39V126.832C122.452 118.079 116.451 110.385 108.941 104.359C108.789 104.235 108.636 104.114 108.482 103.995C106.954 102.789 105.37 101.658 103.728 100.6C103.621 100.533 103.515 100.463 103.408 100.399C93.5321 94.1122 82.0637 90.7822 70.3566 90.8017H5V39L126.466 39Z" fill="#3490E5"/>
<rect opacity="0.1" x="10.1616" y="59.2954" width="10.0092" height="10.0092" fill="black"/>
<rect x="39.2266" y="54.2908" width="82.1912" height="2.50231" fill="#F2F2F2"/>
<rect x="39.2266" y="60.6428" width="82.1912" height="2.50231" fill="#F2F2F2"/>
<rect x="39.2266" y="66.9949" width="82.1912" height="2.50231" fill="#F2F2F2"/>
<path fill-rule="evenodd" clip-rule="evenodd" d="M9.96875 69.4972H25.3676V54.0984H9.96875V69.4972ZM24.9826 69.1122H10.3537V54.4834H24.9826V69.1122Z" fill="#F2F2F2"/>
<path d="M17.6403 65.2147L12.8418 59.6182L13.5949 58.9727L17.56 63.5974L28.1048 48.499L28.9182 49.0669L17.6403 65.2147V65.2147Z" fill="#204DD4"/>
<path d="M98.6915 103.526V154.06C96.3821 149.024 92.9295 144.597 88.6085 141.13C88.5214 141.059 88.433 140.989 88.3445 140.921C87.4656 140.227 86.5539 139.576 85.6094 138.967C85.548 138.929 85.4867 138.889 85.4253 138.852C79.7432 135.235 73.1449 133.319 66.4093 133.33H28.8066V103.526H98.6915Z" fill="white"/>
<rect opacity="0.1" x="31.7764" y="115.203" width="5.75877" height="5.75877" fill="black"/>
<rect x="48.499" y="112.324" width="47.2884" height="1.43969" fill="#F2F2F2"/>
<rect x="48.499" y="115.979" width="47.2884" height="1.43969" fill="#F2F2F2"/>
<rect x="48.499" y="119.633" width="47.2884" height="1.43969" fill="#F2F2F2"/>
<path fill-rule="evenodd" clip-rule="evenodd" d="M31.6655 121.073H40.5252V112.213H31.6655V121.073ZM40.3037 120.851H31.887V112.435H40.3037V120.851Z" fill="#F2F2F2"/>
<path d="M36.0789 118.609L33.3184 115.389L33.7516 115.018L36.0328 117.678L42.0998 108.992L42.5677 109.318L36.0789 118.609V118.609Z" fill="#204DD4"/>
<path d="M126.466 15.8711C130.848 15.8711 134.401 12.3182 134.401 7.93554C134.401 3.55286 130.848 0 126.466 0C122.083 0 118.53 3.55286 118.53 7.93554C118.53 12.3182 122.083 15.8711 126.466 15.8711Z" fill="#204DD4"/>
<path d="M98.6915 160.377C101.842 160.377 104.395 157.823 104.395 154.673C104.395 151.523 101.842 148.969 98.6915 148.969C95.5414 148.969 92.9878 151.523 92.9878 154.673C92.9878 157.823 95.5414 160.377 98.6915 160.377Z" fill="#204DD4"/>
</svg>
