<svg width="343" height="217" viewBox="0 0 343 217" fill="none" xmlns="http://www.w3.org/2000/svg">
<rect y="13" width="343" height="177" fill="#A4E9FB"/>
<path d="M127.044 49C115.642 49.0087 104.32 47.1371 93.546 43.4629C79.1027 38.5454 67.2704 31.7626 58.378 23.3029C41.557 7.30048 27.7664 4.88883 19.1612 5.68293C9.84625 6.54294 4.42421 11.24 4.37056 11.2874L4 10.8806C4.05474 10.8322 9.58855 6.02848 19.0734 5.14219C24.6356 4.6228 30.4521 5.52777 36.3621 7.83282C43.732 10.7073 51.269 15.7799 58.7636 22.9099C67.5974 31.3139 79.3609 38.0552 93.7272 42.9463C120.101 51.9253 149.825 49.7514 175.277 36.9818C183.705 32.7535 192.034 29.8674 200.033 28.4037C210.12 26.5575 219.687 26.986 228.469 29.6765C247.767 35.5886 260.949 35.2751 268.608 33.9716C276.873 32.565 280.622 29.7499 280.659 29.7216L281 30.153C280.845 30.2718 277.103 33.0804 268.702 34.5101C260.982 35.8242 247.707 36.1426 228.304 30.1982C208.659 24.1803 188.761 30.8299 175.529 37.4685C162.949 43.8137 149.212 47.6298 135.119 48.6944C132.417 48.898 129.726 48.9999 127.044 49Z" fill="#3F3D56"/>
<path d="M125.5 55C128.538 55 131 52.5376 131 49.5C131 46.4624 128.538 44 125.5 44C122.462 44 120 46.4624 120 49.5C120 52.5376 122.462 55 125.5 55Z" fill="#204DD4"/>
<path d="M213.5 33C216.538 33 219 30.5376 219 27.5C219 24.4624 216.538 22 213.5 22C210.462 22 208 24.4624 208 27.5C208 30.5376 210.462 33 213.5 33Z" fill="#204DD4"/>
<path d="M32.5 11C35.5376 11 38 8.53757 38 5.5C38 2.46243 35.5376 0 32.5 0C29.4624 0 27 2.46243 27 5.5C27 8.53757 29.4624 11 32.5 11Z" fill="#204DD4"/>
<path fill-rule="evenodd" clip-rule="evenodd" d="M166 188V134H204.503C202.658 129.987 201.36 120.476 201.36 109.377C201.36 94.6532 205.683 80 208.5 80H217V188H208.5V138.755H174.5V188H166ZM208.417 134H208.5V133.813C208.494 133.827 208.488 133.84 208.482 133.854C208.461 133.903 208.439 133.953 208.417 134Z" fill="#3F3D56"/>
<path d="M197.554 53H197.554C190.621 53 185 59.3144 185 67.1037V77H188.007L189.747 73.3333L189.312 77H208.637L210.22 73.6667L209.824 77H212V69.2296C212 60.2663 205.532 53 197.554 53Z" fill="#2F2E41"/>
<path d="M183.265 117L175.554 120.323L148.756 142.408C147.771 143.636 147.167 145.132 147.021 146.708C146.829 149.249 138.732 162.539 141.623 164.299C144.515 166.058 154.926 171.335 155.504 167.817C156.082 164.299 159.167 149.249 159.167 149.249L185 125.795L183.265 117Z" fill="#2F2E41"/>
<path d="M153 164.791L149.645 174.677C149.645 174.677 153.197 178.433 151.421 181.597V192.472H148.658L147.869 186.738C147.869 186.738 144.722 192.399 143.133 192.472C139.801 192.623 133.203 193.811 133.005 192.031C132.808 190.252 138.002 188.517 138.002 188.517L143.528 173.293L145.896 164L153 164.791Z" fill="#2F2E41"/>
<path d="M203.707 115.391C203.707 115.391 205.455 132.608 200.406 135.738C195.357 138.869 173.024 148.847 173.024 148.847C173.024 148.847 182.54 157.847 180.598 159.999C178.656 162.151 169.917 168.02 168.752 166.846C167.586 165.672 154.575 151.586 156.129 147.086C157.682 142.586 179.238 127.913 179.238 127.913L181.763 118.717L182.54 111.282L190.696 106L203.707 115.391Z" fill="#2F2E41"/>
<path d="M194.5 75C199.194 75 203 71.1944 203 66.5C203 61.8056 199.194 58 194.5 58C189.806 58 186 61.8056 186 66.5C186 71.1944 189.806 75 194.5 75Z" fill="#FFB9B9"/>
<path d="M201.299 71C201.299 71 200.911 78.3286 206.917 80.6429C212.922 82.9571 192 98 192 98V81.2214C192 81.2214 194.712 78.3286 192 73.8928L201.299 71Z" fill="#FFB9B9"/>
<path d="M214 105L212.432 112.493L207.729 138.238C207.729 138.238 211.648 149.19 206.357 148.998C201.065 148.805 203.613 137.086 203.613 137.086L206.357 115.759V107.498L214 105Z" fill="#FFB9B9"/>
<path d="M180.965 102L179.144 108.805L170.847 128.053C170.847 128.053 165.181 137.191 169.835 136.997C174.489 136.803 174.489 128.053 174.489 128.053L184 112.499V103.75L180.965 102Z" fill="#FFB9B9"/>
<path d="M179.286 159L185.768 164.974C185.768 164.974 190.286 164.01 192.054 169.213C193.821 174.416 195 177.692 195 177.692L192.643 179.041L189.696 174.994C189.696 174.994 187.929 182.317 186.161 182.895C184.393 183.473 175.554 187.327 176.339 182.895L180.661 176.729C180.661 176.729 181.25 169.791 179.482 169.213C177.714 168.635 173 162.854 173 162.854L179.286 159Z" fill="#2F2E41"/>
<path d="M204.411 121C204.411 121 185.946 114.535 184.767 115.105C183.89 115.48 182.955 115.715 182 115.8L182.017 113.204C182.017 113.204 188.106 111.112 191.446 112.443C194.785 113.774 205 119.669 205 119.669L204.411 121Z" fill="#3F3D56"/>
<path d="M193.281 93.4762C193.281 93.4762 198.617 87.534 200.198 83.892C201.199 81.6841 203.035 79.9329 205.328 79C205.328 79 217.195 81.5918 216.998 86.1922C216.8 90.7926 209.487 97.885 209.487 97.885C209.487 97.885 210.475 123.379 205.139 122.996C203.988 121.663 203.176 120.088 202.767 118.395C202.175 115.712 183.794 112.836 183.794 112.836C183.794 112.836 182.213 115.52 182.015 114.37C181.818 113.22 183.596 85.0421 183.596 85.0421L193.021 79L193.281 93.4762Z" fill="white"/>
<path d="M214.647 84.345L214.779 84.4185C215.638 84.8958 216.169 85.7952 216.169 86.7706L216.167 101.277C216.17 102.075 216.527 102.831 217.144 103.345C217.904 103.986 218.609 104.909 217.154 105.389C214.786 106.171 205.51 110.08 205.313 108.712C205.115 107.344 204.721 105.78 205.313 105.78C205.776 105.78 208.538 91.7634 210.757 85.7705C211.031 85.0279 211.621 84.4419 212.369 84.1676C213.118 83.8932 213.951 83.9581 214.647 84.345Z" fill="white"/>
<path d="M186 85L183.464 85.7706L180.567 99.0642C180.567 99.0642 177.125 99.8349 178.212 101.183C179.299 102.532 183.827 106 183.827 106L186 85Z" fill="white"/>
<path d="M201.714 56.7074C200.431 55.0281 198.419 54.0272 196.272 54H196.014C191.035 54 187 58.3915 187 63.8088V63.8088H188.668L188.937 61.8098L189.332 63.8088H199.225L200.054 62.1176L199.847 63.8088H201.793C202.701 68.2059 201.396 72.6029 197.878 77H201.194L202.851 73.6176L202.437 77H208.757L210 69.2206C210 63.3945 206.528 58.4541 201.714 56.7074Z" fill="#2F2E41"/>
<path fill-rule="evenodd" clip-rule="evenodd" d="M41.1733 118.642C41.1733 130.973 39.7485 141.541 37.7225 146H80V206H70.6667V151.283H33.3333V206H24V86H33.3333C36.4261 86 41.1733 102.281 41.1733 118.642ZM33.3527 145.837C33.3463 145.822 33.3398 145.807 33.3333 145.792V146H33.4241C33.4001 145.947 33.3764 145.892 33.3527 145.837Z" fill="#3F3D56"/>
<path d="M77.2813 125C77.2813 125 88.9836 129.597 85.2731 132.3C81.5626 135.004 73.8563 129.056 74.1417 128.245C74.4271 127.433 73 125.541 73 125.541L77.2813 125Z" fill="#9F616A"/>
<path d="M67.4583 88L71.25 91.3333L72.125 101.056L75.0417 111.333C75.0417 111.333 80 121.056 79.125 123C78.25 124.944 80 125.5 80 125.5L73.2917 128C73.2917 128 66 120.222 66 118.556C66 116.889 67.4583 88 67.4583 88Z" fill="#3490E5"/>
<path d="M101.683 187.512C101.683 187.512 100.289 193.93 100.01 194.488C99.7313 195.047 105.308 197 105.308 197L112 192.256C112 192.256 109.212 186.116 109.212 185L101.683 187.512Z" fill="#3490E5"/>
<path d="M65.5108 125L67.4586 127.213C67.4586 127.213 107.805 132.194 108.639 139.941C109.474 147.688 115.317 184.21 111.978 185.316C108.639 186.423 100.014 190.573 100.014 188.36C100.014 186.147 94.4487 155.712 95.5617 150.178C95.5617 150.178 47.4246 144.091 46.3116 137.174C45.1986 130.257 47.4246 127.213 47.4246 127.213L65.5108 125Z" fill="#2F2E41"/>
<path opacity="0.1" d="M65.5108 125L67.4586 127.213C67.4586 127.213 107.805 132.194 108.639 139.941C109.474 147.688 115.317 184.21 111.978 185.316C108.639 186.423 100.014 190.573 100.014 188.36C100.014 186.147 94.4487 155.712 95.5617 150.178C95.5617 150.178 47.4246 144.091 46.3116 137.174C45.1986 130.257 47.4246 127.213 47.4246 127.213L65.5108 125Z" fill="black"/>
<path d="M101.09 193.875C101.09 193.875 99.9706 191.317 99.4109 192.17C98.8512 193.023 96.8923 202.971 98.8512 202.971C100.81 202.971 118.72 207.519 121.238 206.951C123.757 206.382 128.514 207.235 127.955 204.393C127.395 201.55 124.597 201.266 124.597 201.266C124.597 201.266 114.242 195.012 113.683 191.886C113.123 188.759 110.045 190.464 110.045 190.464V192.454C110.045 192.454 104.168 197.002 101.09 193.875Z" fill="#2F2E41"/>
<path d="M48.3041 65.8469C48.3041 65.8469 50.2607 75.3636 46.0681 76.2033C41.8755 77.043 51.3787 82.6411 51.3787 82.6411L57.5279 86L62 81.5215C62 81.5215 57.9471 73.2643 61.0217 67.1064C64.0963 60.9485 48.3041 65.8469 48.3041 65.8469Z" fill="#9F616A"/>
<path d="M62 81.5215L57.5279 86L51.3787 82.6411C51.3787 82.6411 41.8755 77.043 46.0681 76.2033C48.7653 75.6631 48.9162 71.5317 48.6843 68.6543C48.6086 67.7123 48.4817 66.7751 48.3041 65.8469C48.3041 65.8469 64.0963 60.9485 61.0217 67.1064C60.5546 68.0573 60.2306 69.0723 60.0602 70.1182C59.1183 75.6519 62 81.5215 62 81.5215Z" fill="#9F616A"/>
<path d="M78 195.727V202H88.1951L89 199.545L87.9268 193L78 195.727Z" fill="#3490E5"/>
<path d="M34 131.329C34 131.329 34 147.695 40.6659 148.25C47.3319 148.805 71.2182 151.856 71.2182 151.856C71.2182 151.856 72.6069 179.041 75.1066 187.918C77.6064 196.794 75.3844 197.349 77.6064 197.904C79.8283 198.459 89.2717 196.517 88.994 194.575C88.7163 192.633 87.6053 143.534 87.6053 143.534C87.6053 143.534 90.105 132.993 56.7753 128L34 131.329Z" fill="#2F2E41"/>
<path d="M77.7173 199.577C77.7173 199.577 76.0399 195.904 75.7604 197.034C75.4808 198.164 72.1262 208.054 75.4808 208.901C78.8355 209.749 89.4586 214.27 96.4474 213.987C103.436 213.705 104.275 213.422 104.275 213.422C104.275 213.422 106.232 210.597 103.716 208.901C101.2 207.206 90.8563 197.317 90.2972 196.186C89.7381 195.056 85.5448 194.209 85.5448 196.186C85.5448 198.164 79.6741 202.12 77.7173 199.577Z" fill="#2F2E41"/>
<path opacity="0.1" d="M60.6064 67.212C60.1434 68.1953 59.8222 69.2447 59.6534 70.3262C58.2736 71.1973 57.3509 70.9745 55.6193 70.9745C53.0509 70.9745 52.0147 67.5449 50.3551 65.7649C50.2248 64.1123 48 65.9096 48 65.9096C48 65.9096 63.6542 60.8448 60.6064 67.212Z" fill="black"/>
<path d="M55 71C59.9706 71 64 66.9706 64 62C64 57.0294 59.9706 53 55 53C50.0294 53 46 57.0294 46 62C46 66.9706 50.0294 71 55 71Z" fill="#9F616A"/>
<path d="M72 91.5913C72 91.5913 70.5995 101.463 69.7593 105.027C68.919 108.592 67.7986 125.044 67.2384 127.238C66.6782 129.431 63.3171 129.98 56.5949 129.157C56.1729 129.105 55.7485 129.074 55.3233 129.064C51.1835 128.935 46.4471 130.451 42.0637 131.641C39.5428 132.327 37.1368 132.903 35.0277 132.996C31.8347 133.138 30.8992 129.672 31.0084 125.921C31.112 122.431 32.1232 118.688 33.0671 117.366C34.7673 114.986 33.0951 93.6177 33.7225 86.5707V86.568C33.8177 85.4931 33.9662 84.7527 34.1875 84.4621C35.868 82.2685 46.7916 76.7844 48.0156 77.0066C49.2368 77.2287 59.6759 83.6395 59.6759 83.6395C62.1967 83.6395 62.1155 80.9633 62.1155 80.9633C62.1155 80.9633 63.8773 84.1879 67.2384 85.0105C70.5995 85.8331 72 91.5913 72 91.5913Z" fill="#3490E5"/>
<path d="M52.6067 127C52.6067 127 70.8147 127.531 67.625 129.513C64.4354 131.494 50.3023 133.306 50.0196 130.717C49.7369 128.128 52.6067 127 52.6067 127Z" fill="#9F616A"/>
<path opacity="0.1" d="M54.9991 129.562C55.0572 130.637 52.2014 133.058 51.278 134.695C50.7666 135.601 46.8078 134.406 41.9117 132.193C38.1546 130.486 34.5098 128.536 31 126.355C31.1023 122.792 32.1003 118.972 33.0319 117.624C34.7101 115.194 33.0596 93.3854 33.6789 86.1931V86.1903C33.8265 86.1144 33.98 86.0508 34.1378 86H37.4552C48.7899 91.3172 35.7965 114.265 35.7965 114.265C35.7965 114.265 52.9368 128.538 54.5955 129.098C54.8193 129.141 54.9856 129.332 54.9991 129.562Z" fill="black"/>
<path d="M36.568 84H33.2724C33.2724 84 30.2514 84.8396 27.7797 90.4366C25.308 96.0336 16.2451 113.384 24.2095 120.101C32.1739 126.817 49.2012 134.653 50.2997 132.694C51.3982 130.735 55.2431 127.657 53.5953 127.097C51.9475 126.537 34.9202 112.265 34.9202 112.265C34.9202 112.265 47.828 89.3172 36.568 84Z" fill="#3490E5"/>
<path d="M53.6432 58.4652C53.6432 58.4652 54.0403 52.8852 58.9391 55.1604C63.8378 57.4356 63.5182 51.1644 62.0378 50.0562C60.5574 48.948 60.6043 48.6738 55.1899 49.4152C49.7756 50.1567 39.2639 51.4129 42.6628 62.4639C46.0617 73.5148 49.1399 70.6719 49.1399 70.6719C49.1399 70.6719 46.4382 60.7275 49.1757 62.6221L51.9132 64.5167L53.3577 64.2061L53.6432 58.4652Z" fill="#2F2E41"/>
<path d="M242 150.03C242 145.043 204.84 141 159 141C113.16 141 76 145.043 76 150.03C76 151.963 81.585 153.753 91.0909 155.222V217H95.6182V155.859C110.843 157.816 133.585 159.059 159 159.059C184.625 159.059 207.534 157.796 222.759 155.81V217H227.286V155.163C236.561 153.705 242 151.937 242 150.03Z" fill="#3F3D56"/>
<path d="M186 138C195.389 138 203 136.209 203 134C203 131.791 195.389 130 186 130C176.611 130 169 131.791 169 134C169 136.209 176.611 138 186 138Z" fill="#F2F2F2"/>
<path d="M186 138C193.732 138 200 136.433 200 134.5C200 132.567 193.732 131 186 131C178.268 131 172 132.567 172 134.5C172 136.433 178.268 138 186 138Z" fill="#D0CDE1"/>
<path d="M123 141C132.389 141 140 139.209 140 137C140 134.791 132.389 133 123 133C113.611 133 106 134.791 106 137C106 139.209 113.611 141 123 141Z" fill="#F2F2F2"/>
<path d="M123 141C130.732 141 137 139.433 137 137.5C137 135.567 130.732 134 123 134C115.268 134 109 135.567 109 137.5C109 139.433 115.268 141 123 141Z" fill="#D0CDE1"/>
<path d="M185 134C189.418 134 193 133.552 193 133C193 132.448 189.418 132 185 132C180.582 132 177 132.448 177 133C177 133.552 180.582 134 185 134Z" fill="#9F616A"/>
<path d="M180.5 132C181.881 132 183 131.328 183 130.5C183 129.672 181.881 129 180.5 129C179.119 129 178 129.672 178 130.5C178 131.328 179.119 132 180.5 132Z" fill="#6C63FF"/>
<path d="M180.5 132C181.881 132 183 131.328 183 130.5C183 129.672 181.881 129 180.5 129C179.119 129 178 129.672 178 130.5C178 131.328 179.119 132 180.5 132Z" fill="#204DD4"/>
<path d="M191.5 132C192.881 132 194 131.328 194 130.5C194 129.672 192.881 129 191.5 129C190.119 129 189 129.672 189 130.5C189 131.328 190.119 132 191.5 132Z" fill="#204DD4"/>
<path d="M185.5 132C186.881 132 188 131.328 188 130.5C188 129.672 186.881 129 185.5 129C184.119 129 183 129.672 183 130.5C183 131.328 184.119 132 185.5 132Z" fill="#204DD4"/>
<path d="M189.5 132C190.881 132 192 131.328 192 130.5C192 129.672 190.881 129 189.5 129C188.119 129 187 129.672 187 130.5C187 131.328 188.119 132 189.5 132Z" fill="#6C63FF"/>
<path d="M193 129.792C188.247 131.403 182.913 131.403 177 129.792V129.571C176.998 126.094 179.728 123.227 183.206 123.052C184.616 122.981 186.028 122.983 187.438 123.057C190.566 123.239 193.008 125.829 193 128.957V129.792Z" fill="#3F3D56"/>
<path d="M191.074 135.706C187.7 136.098 184.3 136.098 180.926 135.706C179.268 135.519 178.003 133.917 178 132H194C193.997 133.917 192.732 135.519 191.074 135.706Z" fill="#204DD4"/>
<path d="M183 125.5C182.36 126.167 181.64 126.167 181 125.5C181.64 124.833 182.36 124.833 183 125.5Z" fill="#D0CDE1"/>
<path d="M186 125.5C185.36 126.167 184.64 126.167 184 125.5C184.64 124.833 185.36 124.833 186 125.5Z" fill="#D0CDE1"/>
<path d="M186 124.5C185.36 125.167 184.64 125.167 184 124.5C184.64 123.833 185.36 123.833 186 124.5Z" fill="#D0CDE1"/>
<path d="M190 124.5C189.36 125.167 188.64 125.167 188 124.5C188.64 123.833 189.36 123.833 190 124.5Z" fill="#D0CDE1"/>
<path d="M189 125.5C188.36 126.167 187.64 126.167 187 125.5C187.64 124.833 188.36 124.833 189 125.5Z" fill="#D0CDE1"/>
<path d="M123 137C127.418 137 131 136.552 131 136C131 135.448 127.418 135 123 135C118.582 135 115 135.448 115 136C115 136.552 118.582 137 123 137Z" fill="#9F616A"/>
<path d="M118.5 135C119.881 135 121 134.328 121 133.5C121 132.672 119.881 132 118.5 132C117.119 132 116 132.672 116 133.5C116 134.328 117.119 135 118.5 135Z" fill="#204DD4"/>
<path d="M117.5 135C118.881 135 120 134.328 120 133.5C120 132.672 118.881 132 117.5 132C116.119 132 115 132.672 115 133.5C115 134.328 116.119 135 117.5 135Z" fill="#204DD4"/>
<path d="M128.5 136C129.881 136 131 135.328 131 134.5C131 133.672 129.881 133 128.5 133C127.119 133 126 133.672 126 134.5C126 135.328 127.119 136 128.5 136Z" fill="#204DD4"/>
<path d="M122.5 135C123.881 135 125 134.328 125 133.5C125 132.672 123.881 132 122.5 132C121.119 132 120 132.672 120 133.5C120 134.328 121.119 135 122.5 135Z" fill="#204DD4"/>
<path d="M126.5 135C127.881 135 129 134.328 129 133.5C129 132.672 127.881 132 126.5 132C125.119 132 124 132.672 124 133.5C124 134.328 125.119 135 126.5 135Z" fill="#204DD4"/>
<path d="M131 132.792C126.247 134.403 120.913 134.403 115 132.792V132.571C114.998 129.094 117.728 126.227 121.206 126.052C122.616 125.981 124.028 125.983 125.438 126.057C128.566 126.239 131.008 128.829 131 131.957V132.792Z" fill="#3F3D56"/>
<path d="M128.074 138.706C124.7 139.098 121.3 139.098 117.926 138.706C116.268 138.519 115.003 136.917 115 135H131C130.997 136.917 129.732 138.519 128.074 138.706Z" fill="#3F3D56"/>
<path d="M120 128.5C119.36 129.167 118.64 129.167 118 128.5C118.64 127.833 119.36 127.833 120 128.5Z" fill="#D0CDE1"/>
<path d="M122 129.5C121.36 130.167 120.64 130.167 120 129.5C120.64 128.833 121.36 128.833 122 129.5Z" fill="#D0CDE1"/>
<path d="M123 128.5C122.36 129.167 121.64 129.167 121 128.5C121.64 127.833 122.36 127.833 123 128.5Z" fill="#D0CDE1"/>
<path d="M127 128.5C126.36 129.167 125.64 129.167 125 128.5C125.64 127.833 126.36 127.833 127 128.5Z" fill="#D0CDE1"/>
<path d="M126 128.5C125.36 129.167 124.64 129.167 124 128.5C124.64 127.833 125.36 127.833 126 128.5Z" fill="#D0CDE1"/>
<path d="M200.914 133L200.952 134.003L201 135.303C201 135.303 196.049 135.64 195.052 136.912C195.029 136.939 195.007 136.969 194.988 137L193.005 136.476L193 135.298C193 135.298 193.027 135.28 193.081 135.245C193.093 135.237 193.108 135.228 193.123 135.218C195.55 133.784 198.212 133.027 200.914 133V133Z" fill="#204DD4"/>
<path opacity="0.1" d="M200.962 133L201 133.753C198.769 133.814 194.546 135 194.546 135L193 134.686C195.477 133.595 198.199 133.019 200.962 133V133Z" fill="black"/>
<path opacity="0.1" d="M193.12 134L194.561 134.5L195 135.901C194.977 135.932 194.957 135.965 194.938 136L193.005 135.412L193 134.09C193 134.09 193.027 134.069 193.079 134.03C193.09 134.022 193.105 134.011 193.12 134Z" fill="white"/>
<path d="M137.914 136L137.952 137.003L138 138.303C138 138.303 133.049 138.64 132.052 139.912C132.029 139.939 132.007 139.969 131.988 140L130.005 139.476L130 138.298C130 138.298 130.027 138.28 130.081 138.245C130.093 138.237 130.108 138.228 130.123 138.218C132.55 136.784 135.212 136.027 137.914 136V136Z" fill="#204DD4"/>
<path opacity="0.1" d="M137.962 137L138 137.753C135.769 137.814 131.546 139 131.546 139L130 138.686C132.477 137.595 135.199 137.019 137.962 137Z" fill="black"/>
<path opacity="0.1" d="M130.12 138L131.561 138.5L132 139.901C131.977 139.932 131.957 139.965 131.938 140L130.005 139.412L130 138.09C130 138.09 130.027 138.069 130.079 138.03C130.09 138.022 130.105 138.011 130.12 138Z" fill="white"/>
<path d="M230.495 106.336C230.056 105.898 229.541 105.543 228.975 105.289V94.478C228.975 94.214 228.761 94 228.496 94H225.813C225.548 94 225.333 94.214 225.333 94.478V105.081C223.344 105.739 222.001 107.594 222 109.685V132.875C222 133.439 222.225 133.979 222.624 134.378C223.024 134.776 223.566 135 224.131 135H229.879C231.05 135 232 134.053 232 132.885V109.958C232.002 108.599 231.46 107.295 230.495 106.336Z" fill="#3F3D56"/>
<rect x="222" y="114" width="10" height="13" fill="#204DD4"/>
<path d="M230 94.7869H229.788V94.5091C229.788 94.2279 229.577 94 229.317 94H226.683C226.423 94 226.212 94.2279 226.212 94.5091V94.7869H226V95.9672H226.212V102H229.788V95.9672H230V94.7869Z" fill="#204DD4"/>
<path d="M152.035 116.11C151.769 115.541 151.56 115.138 151.487 115C146.987 116.116 143.985 115.173 143.512 115.006C143.28 115.445 141.835 118.253 141.251 120.945C140.723 123.373 141.029 125.001 142.161 125.783L142.195 125.807L142.202 125.812C143.451 126.639 144.643 127.372 145.744 127.989C145.892 128.072 146.032 128.149 146.164 128.221L146.178 128.228L146.188 128.241C146.339 128.432 146.479 128.632 146.609 128.838C146.852 129.18 147 129.581 147.036 129.999V142.059L146.961 142.061C144.09 142.12 142.314 142.609 142.314 143.028C142.314 143.488 144.444 144 147.501 144C150.558 144 152.688 143.488 152.688 143.028C152.688 142.615 150.941 142.129 148.12 142.063L148.044 142.061L148.115 130.906C148.116 130.151 148.291 129.406 148.626 128.729C148.683 128.616 148.744 128.505 148.807 128.401C148.859 128.317 148.913 128.235 148.969 128.158L148.979 128.144L148.994 128.135C149.136 128.058 149.286 127.974 149.445 127.883L149.463 127.873C150.505 127.282 151.628 126.589 152.8 125.812C153.847 125.119 154.211 123.717 153.883 121.647C153.571 119.673 152.706 117.546 152.035 116.11Z" fill="#D0CDE1"/>
<path d="M151.874 126.178C150.626 126.934 149.597 127.502 148.809 127.911H148.808C147.659 127.839 146.506 127.869 145.363 128C144.556 127.585 143.466 126.99 142.127 126.178C142.114 126.17 142.101 126.162 142.088 126.154V126.153C140.859 125.375 140.829 123.727 141.229 122.042C142.246 121.938 143.868 121.983 146.047 122.7C148.627 123.548 151.328 123.068 152.893 122.632C153.15 124.119 152.993 125.498 151.874 126.178Z" fill="#204DD4"/>
<path d="M144.5 121C144.776 121 145 120.776 145 120.5C145 120.224 144.776 120 144.5 120C144.224 120 144 120.224 144 120.5C144 120.776 144.224 121 144.5 121Z" fill="#204DD4"/>
<path d="M143.5 124C143.776 124 144 123.776 144 123.5C144 123.224 143.776 123 143.5 123C143.224 123 143 123.224 143 123.5C143 123.776 143.224 124 143.5 124Z" fill="white"/>
<path d="M145.5 122C145.776 122 146 121.776 146 121.5C146 121.224 145.776 121 145.5 121C145.224 121 145 121.224 145 121.5C145 121.776 145.224 122 145.5 122Z" fill="#204DD4"/>
<path d="M146.5 126C146.776 126 147 125.776 147 125.5C147 125.224 146.776 125 146.5 125C146.224 125 146 125.224 146 125.5C146 125.776 146.224 126 146.5 126Z" fill="white"/>
<path d="M144.5 126C144.776 126 145 125.776 145 125.5C145 125.224 144.776 125 144.5 125C144.224 125 144 125.224 144 125.5C144 125.776 144.224 126 144.5 126Z" fill="white"/>
<path d="M149.5 119C149.776 119 150 118.776 150 118.5C150 118.224 149.776 118 149.5 118C149.224 118 149 118.224 149 118.5C149 118.776 149.224 119 149.5 119Z" fill="#204DD4"/>
<path d="M168.035 105.11C167.769 104.541 167.56 104.138 167.487 104C162.987 105.116 159.985 104.173 159.512 104.006C159.28 104.445 157.835 107.253 157.251 109.945C156.723 112.373 157.029 114.001 158.161 114.783L158.195 114.807L158.202 114.812C159.451 115.639 160.643 116.372 161.744 116.989C161.892 117.072 162.032 117.149 162.164 117.221L162.178 117.228L162.188 117.241C162.339 117.432 162.479 117.632 162.609 117.838C162.852 118.18 163 118.581 163.036 118.999V131.059L162.961 131.061C160.09 131.12 158.314 131.609 158.314 132.028C158.314 132.488 160.444 133 163.501 133C166.558 133 168.688 132.488 168.688 132.028C168.688 131.615 166.941 131.129 164.12 131.063L164.044 131.061L164.115 119.906C164.116 119.151 164.291 118.406 164.626 117.729C164.683 117.616 164.744 117.505 164.807 117.401C164.859 117.317 164.913 117.235 164.969 117.158L164.979 117.144L164.994 117.135C165.136 117.058 165.286 116.974 165.445 116.883L165.463 116.873C166.505 116.282 167.628 115.589 168.8 114.812C169.847 114.119 170.211 112.717 169.883 110.647C169.571 108.673 168.706 106.546 168.035 105.11Z" fill="#D0CDE1"/>
<path d="M167.874 114.178C166.626 114.934 165.597 115.502 164.809 115.911H164.808C163.659 115.839 162.506 115.869 161.363 116C160.556 115.585 159.466 114.99 158.127 114.178C158.114 114.17 158.101 114.162 158.088 114.154V114.153C156.859 113.375 156.829 111.727 157.229 110.042C158.246 109.938 159.868 109.983 162.047 110.7C164.627 111.548 167.328 111.068 168.893 110.632C169.15 112.119 168.993 113.498 167.874 114.178Z" fill="#204DD4"/>
<path d="M160.5 110C160.776 110 161 109.776 161 109.5C161 109.224 160.776 109 160.5 109C160.224 109 160 109.224 160 109.5C160 109.776 160.224 110 160.5 110Z" fill="#204DD4"/>
<path d="M159.5 113C159.776 113 160 112.776 160 112.5C160 112.224 159.776 112 159.5 112C159.224 112 159 112.224 159 112.5C159 112.776 159.224 113 159.5 113Z" fill="white"/>
<path d="M161.5 111C161.776 111 162 110.776 162 110.5C162 110.224 161.776 110 161.5 110C161.224 110 161 110.224 161 110.5C161 110.776 161.224 111 161.5 111Z" fill="#204DD4"/>
<path d="M162.5 114C162.776 114 163 113.776 163 113.5C163 113.224 162.776 113 162.5 113C162.224 113 162 113.224 162 113.5C162 113.776 162.224 114 162.5 114Z" fill="white"/>
<path d="M161.5 115C161.776 115 162 114.776 162 114.5C162 114.224 161.776 114 161.5 114C161.224 114 161 114.224 161 114.5C161 114.776 161.224 115 161.5 115Z" fill="white"/>
<path d="M165.5 108C165.776 108 166 107.776 166 107.5C166 107.224 165.776 107 165.5 107C165.224 107 165 107.224 165 107.5C165 107.776 165.224 108 165.5 108Z" fill="#204DD4"/>
</svg>
