<svg width="314" height="217" viewBox="0 0 314 217" fill="none" xmlns="http://www.w3.org/2000/svg">
<rect x="232.132" y="11.3733" width="27.3255" height="33.9499" fill="#2F2E41"/>
<path d="M246.83 27.3132C252.547 27.3132 257.181 22.6791 257.181 16.9626C257.181 11.2462 252.547 6.61206 246.83 6.61206C241.114 6.61206 236.479 11.2462 236.479 16.9626C236.479 22.6791 241.114 27.3132 246.83 27.3132Z" fill="#FFB8B8"/>
<path d="M239.999 23.3799C239.999 23.3799 245.795 30.4183 234.202 35.8006C222.61 41.1829 242.483 63.5401 242.483 63.5401C242.483 63.5401 265.668 54.8456 263.598 37.8707C263.598 37.8707 249.521 35.3865 252.833 23.7939L239.999 23.3799Z" fill="#FFB8B8"/>
<path d="M233.788 35.3865C233.788 35.3865 224.266 34.1444 223.852 42.0109C223.438 49.8773 223.852 68.9224 223.852 68.9224C223.852 68.9224 219.712 85.4833 221.782 99.9741C221.782 99.9741 219.298 116.949 225.922 116.121C232.546 115.293 227.578 98.732 227.578 98.732L230.476 71.8205L229.234 51.9474L234.616 39.9407L233.788 35.3865Z" fill="#FFB8B8"/>
<path d="M231.925 33.9375L230.683 47.6003C230.683 47.6003 224.887 53.3966 231.511 61.263L230.683 67.4734C230.683 67.4734 246.002 66.6453 248.9 67.4734C251.798 68.3014 260.749 66.8067 260.749 66.8067L260.907 62.0911C260.907 62.0911 265.047 56.2947 263.805 47.6003C262.563 38.9058 263.805 36.0076 263.805 36.0076L260.907 35.5936C260.907 35.5936 259.044 48.2213 246.209 49.4634C246.209 49.4634 230.269 50.9124 234.823 33.9375L231.925 33.9375Z" fill="white"/>
<path d="M247.865 0.194636C247.865 0.194636 237.101 -0.472688 234.617 6.22123C232.133 12.9151 227.785 16.4294 227.785 16.4294C227.785 16.4294 220.937 21.1896 224.361 29.6871C224.361 29.6871 213.709 36.8459 220.747 43.2051C220.747 43.2051 220.333 49.5643 224.473 53.9154C224.473 53.9154 227.785 55.5889 226.543 56.5929C225.301 57.597 234.824 56.9276 233.996 47.8908C233.168 38.8541 238.757 32.4884 238.757 32.4884C238.757 32.4884 233.375 20.7719 235.859 16.7556C237.367 14.3171 238.015 12.4986 239.267 11.4462C239.964 10.8741 240.611 10.243 241.2 9.55989C242.339 8.11911 244.246 7.52453 246.002 8.06205C249.729 9.06614 250.557 12.0784 250.557 12.0784C250.557 12.0784 253.248 19.2744 257.802 22.6213C262.356 25.9683 254.283 31.8255 254.283 31.8255C254.283 31.8255 255.686 38.7214 259.332 42.8041C262.977 46.8868 258.281 50.4455 258.009 50.9031C257.388 51.9475 254.908 58.5427 265.153 58.5719C265.153 58.5719 267.532 53.5807 270.844 50.5684C274.156 47.5562 271.672 38.8541 271.672 38.8541C271.672 38.8541 276.64 35.8418 271.258 28.4785C271.258 28.4785 272.914 21.7846 268.36 17.4335C268.36 17.4335 261.942 -2.14823 247.865 0.194636Z" fill="#2F2E41"/>
<path d="M235.652 18.4116C236.223 18.4116 236.687 17.6701 236.687 16.7555C236.687 15.8408 236.223 15.0994 235.652 15.0994C235.08 15.0994 234.617 15.8408 234.617 16.7555C234.617 17.6701 235.08 18.4116 235.652 18.4116Z" fill="#FFB8B8"/>
<path d="M62.533 54.2279C65.2423 54.2279 67.4386 52.0316 67.4386 49.3223C67.4386 46.6131 65.2423 44.4167 62.533 44.4167C59.8237 44.4167 57.6274 46.6131 57.6274 49.3223C57.6274 52.0316 59.8237 54.2279 62.533 54.2279Z" fill="#204DD4"/>
<path d="M76.3841 54.2279C79.0934 54.2279 81.2897 52.0316 81.2897 49.3223C81.2897 46.6131 79.0934 44.4167 76.3841 44.4167C73.6748 44.4167 71.4785 46.6131 71.4785 49.3223C71.4785 52.0316 73.6748 54.2279 76.3841 54.2279Z" fill="#3490E5"/>
<path opacity="0.5" d="M90.2352 54.2279C92.9445 54.2279 95.1408 52.0316 95.1408 49.3223C95.1408 46.6131 92.9445 44.4167 90.2352 44.4167C87.5259 44.4167 85.3296 46.6131 85.3296 49.3223C85.3296 52.0316 87.5259 54.2279 90.2352 54.2279Z" fill="white"/>
<rect y="40" width="343" height="177" fill="#204DD4"/>
<rect x="50.9907" y="29.4114" width="114.56" height="82.8178" fill="#A4E9FB"/>
<path fill-rule="evenodd" clip-rule="evenodd" d="M50.7021 112.518H186.039V5.17212H50.7021V112.518ZM185.461 111.941H51.2793V5.74925H185.461V111.941Z" fill="#F2F2F2"/>
<rect x="118.226" y="47.0139" width="40.3989" height="4.61702" fill="#F2F2F2"/>
</svg>
