<svg width="343" height="196" viewBox="0 0 343 196" fill="none" xmlns="http://www.w3.org/2000/svg">
<rect y="19" width="343" height="177" fill="#204DD4"/>
<path d="M114 165.234L119.197 180.544L116.222 191.532H121.778L124 179.044L122.611 160.532L114 165.234Z" fill="white"/>
<path d="M273.437 123.418C266.809 129.769 266 139.532 266 139.532C266 139.532 275.936 138.998 282.563 132.647C289.191 126.296 290 116.532 290 116.532C290 116.532 280.064 117.066 273.437 123.418Z" fill="#3490E5"/>
<path d="M264.053 195.532L263.647 195.114C263.711 195.054 270.058 188.909 272.475 177.427C274.708 166.823 273.95 149.363 257.659 126.404C245.164 108.796 240.108 93.412 242.63 80.6797C244.847 69.4942 252.384 64.5805 252.46 64.5322L252.778 65.0195C252.704 65.0666 245.364 69.8645 243.203 80.8092C240.72 93.3775 245.746 108.606 258.139 126.071C265.387 136.285 270.212 146.288 272.48 155.801C274.297 163.425 274.486 170.753 273.042 177.582C270.58 189.226 264.118 195.471 264.053 195.532Z" fill="#F2F2F2"/>
<path d="M261 79.5322C289.719 79.5322 313 75.5028 313 70.5322C313 65.5617 289.719 61.5322 261 61.5322C232.281 61.5322 209 65.5617 209 70.5322C209 75.5028 232.281 79.5322 261 79.5322Z" fill="#3490E5"/>
<path fill-rule="evenodd" clip-rule="evenodd" d="M187 65.0322C187 71.4808 215.332 76.5322 251.5 76.5322C287.668 76.5322 316 71.4808 316 65.0322C316 58.5836 287.668 53.5322 251.5 53.5322C215.332 53.5322 187 58.5836 187 65.0322ZM187.58 65.0322C187.58 59.1182 216.852 54.122 251.5 54.122C286.148 54.122 315.42 59.1182 315.42 65.0322C315.42 70.9462 286.148 75.9425 251.5 75.9425C216.852 75.9425 187.58 70.9462 187.58 65.0322Z" fill="#F2F2F2"/>
<path d="M70.5378 195.532L70.1323 195.116C70.2125 195.04 78.1927 187.333 81.2339 172.929C84.0426 159.628 83.0939 137.729 62.6249 108.94C54.0725 96.9106 48.2401 85.5455 45.2899 75.1601C42.8793 66.6743 42.369 58.7857 43.773 51.7135C46.5487 37.731 55.9832 31.5925 56.0781 31.5322L56.3951 32.0172C56.3021 32.0763 47.0648 38.0996 44.3435 51.8423C41.2214 67.6092 47.5334 86.7082 63.104 108.608C72.1962 121.397 78.2486 133.919 81.0933 145.828C83.3721 155.368 83.6095 164.538 81.7989 173.083C78.7129 187.648 70.6192 195.455 70.5378 195.532Z" fill="#F2F2F2"/>
<path d="M50.5 63.5322C62.9264 63.5322 73 53.4586 73 41.0322C73 28.6058 62.9264 18.5322 50.5 18.5322C38.0736 18.5322 28 28.6058 28 41.0322C28 53.4586 38.0736 63.5322 50.5 63.5322Z" fill="#3490E5"/>
<path fill-rule="evenodd" clip-rule="evenodd" d="M28.3226 42.7044C33.0433 54.1013 44.1646 61.5323 56.5005 61.5322C73.337 61.5131 86.9809 47.8691 87 31.0326C87 18.6967 79.569 7.57546 68.1721 2.85473C56.7751 -1.86599 43.6567 0.743447 34.934 9.46628C26.2112 18.1891 23.6018 31.3075 28.3226 42.7044ZM28.8568 19.5823C33.4881 8.40147 44.3985 1.1114 56.5005 1.11143C73.0178 1.13015 86.403 14.5154 86.4217 31.0326C86.4217 43.1346 79.1316 54.045 67.9508 58.6763C56.77 63.3075 43.9004 60.7476 35.3429 52.1902C26.7855 43.6328 24.2256 30.7631 28.8568 19.5823Z" fill="#F2F2F2"/>
<path d="M73.5 110.532C83.7173 110.532 92 102.249 92 92.0322C92 81.815 83.7173 73.5322 73.5 73.5322C63.2827 73.5322 55 81.815 55 92.0322C55 102.249 63.2827 110.532 73.5 110.532Z" fill="#3490E5"/>
<path d="M63.5 174.532C73.7173 174.532 82 166.249 82 156.032C82 145.815 73.7173 137.532 63.5 137.532C53.2827 137.532 45 145.815 45 156.032C45 166.249 53.2827 174.532 63.5 174.532Z" fill="#3490E5"/>
<path d="M267.09 195.532H204.082C204.082 195.532 202.804 177.082 210.361 176.872C217.918 176.663 217.066 185.049 226.539 173.518C236.011 161.986 247.506 162.615 248.996 169.429C250.486 176.243 246.122 181.695 254.105 180.017C262.087 178.34 273.582 182.743 267.09 195.532Z" fill="#3490E5"/>
<path d="M234.218 195.532L234 195.524C234.508 183.03 237.156 175.002 239.288 170.468C241.602 165.545 243.833 163.552 243.855 163.532L244 163.693C243.978 163.713 241.774 165.686 239.478 170.576C237.358 175.091 234.725 183.085 234.218 195.532Z" fill="white"/>
<path d="M257.193 195.532L257 195.472C258.499 190.204 261.201 185.414 264.865 181.532L265 181.691C261.364 185.546 258.681 190.302 257.193 195.532Z" fill="white"/>
<path d="M213.739 195.532L213.523 195.502C214.228 190.763 213.482 185.921 211.381 181.612C210.519 179.805 209.378 178.144 208 176.69L208.151 176.532C209.547 178.004 210.703 179.686 211.577 181.516C213.697 185.863 214.451 190.749 213.739 195.532Z" fill="white"/>
<path fill-rule="evenodd" clip-rule="evenodd" d="M32.6652 195.514L33 195.532L32.9727 195.203C32.9644 195.102 32.0643 185.092 25.336 178.633C18.6077 172.174 8.43674 171.556 8.33476 171.55L8 171.532L8.02728 171.862C8.03556 171.962 8.93574 181.972 15.6639 188.431C22.3923 194.891 32.5633 195.509 32.6652 195.514ZM16.072 188.018C10.1968 182.378 8.86847 173.941 8.64782 172.154C10.4645 172.323 19.0483 173.402 24.9278 179.047C30.8032 184.687 32.1315 193.123 32.3522 194.911C30.5347 194.741 21.9472 193.658 16.072 188.018Z" fill="white"/>
<path d="M21.7248 181.223C24.1249 190.06 32.3458 195.532 32.3458 195.532C32.3458 195.532 36.6753 186.678 34.2752 177.841C31.8751 169.005 23.6542 163.532 23.6542 163.532C23.6542 163.532 19.3247 172.386 21.7248 181.223Z" fill="#A4E9FB"/>
<path fill-rule="evenodd" clip-rule="evenodd" d="M31.7572 195.237L31.9053 195.532L32.1863 195.349C32.2719 195.294 40.7773 189.687 43.2504 180.806C45.7237 171.925 41.288 162.918 41.2429 162.828L41.0948 162.532L40.8138 162.715C40.7282 162.77 32.2228 168.377 29.7495 177.258C27.2764 186.139 31.7121 195.147 31.7572 195.237ZM30.3191 177.408C32.4787 169.653 39.3677 164.44 40.8568 163.387V163.387C41.597 165.024 44.8422 172.895 42.6808 180.657C40.5213 188.412 33.6323 193.625 32.1432 194.677C31.4031 193.04 28.1578 185.169 30.3191 177.408Z" fill="white"/>
<path d="M39.4369 179.418C32.8095 185.769 32 195.532 32 195.532C32 195.532 41.9357 194.998 48.5631 188.647C55.1905 182.296 56 172.532 56 172.532C56 172.532 46.0643 173.066 39.4369 179.418Z" fill="#A4E9FB"/>
<path d="M32.5 161.532C34.9853 161.532 37 159.518 37 157.032C37 154.547 34.9853 152.532 32.5 152.532C30.0147 152.532 28 154.547 28 157.032C28 159.518 30.0147 161.532 32.5 161.532Z" fill="#204DD4"/>
<path d="M145.541 78.1192C143.008 73.7522 137.998 73.5487 137.998 73.5487C137.998 73.5487 133.116 72.9115 129.984 79.5625C127.065 85.7617 123.037 91.7471 129.336 93.1983L130.474 89.5841L131.178 93.4674C132.075 93.5333 132.975 93.5489 133.874 93.5144C140.619 93.2921 147.044 93.5795 146.837 91.1089C146.562 87.8247 147.977 82.3211 145.541 78.1192Z" fill="#2F2E41"/>
<path d="M126.563 125.532C126.563 125.532 124.493 130.004 128.289 130.499C132.085 130.994 130.786 125.774 130.786 125.774L126.563 125.532Z" fill="#FFB8B8"/>
<path d="M132.702 95.8535L132.861 94.5537C132.151 94.4074 131.129 95.0316 130.867 95.7248C130.386 96.9978 129.495 100.302 128.594 103.544C127.134 108.802 125.927 117.09 126.003 117.999C126.071 119.581 126.223 121.157 126.458 122.722C126.833 125.07 127.323 124.538 126.735 125.323C126.39 125.758 126.325 126.361 126.567 126.864C126.567 126.864 129.757 125.238 131.434 127.532C131.73 127.239 131.964 126.886 132.119 126.495C132.363 125.863 132.976 125.381 132.508 124.751C132.039 124.121 133.658 122.878 133.015 121.592C132.373 120.305 132.201 120.382 132.666 119.547C133.131 118.712 134 113.585 134 113.585L132.702 95.8535Z" fill="white"/>
<path d="M127.279 119.532C127.279 119.532 116.274 120.643 118.234 125.147C120.194 129.65 120.194 130.048 120.194 130.048L129.864 147.532L133 144.221C133 144.221 129.472 136.406 129.472 133.889C129.472 131.372 125.813 127.001 125.813 127.001L132.216 126.471L127.279 119.532Z" fill="#FFB8B8"/>
<path d="M145 124.47C145 124.47 135.771 127.35 130.207 126.303C130.207 126.303 131.836 121.329 126 119.103L139.164 117.532" fill="#2F2E41"/>
<path d="M131.766 145.307C131.766 145.307 128.236 144.778 129.151 147.951L130.982 154.296C130.982 154.296 128.629 160.774 132.289 159.32C135.95 157.865 138.303 148.876 138.303 148.876C138.303 148.876 139.872 142.002 138.303 142.002C136.734 142.002 131.766 140.945 132.289 142.002C132.812 143.06 131.766 145.307 131.766 145.307Z" fill="#2F2E41"/>
<path d="M131.782 106.161L125.621 104.066L130.266 103.41C128.587 100.536 126.52 97.9031 124.121 95.5833L112.806 96.8626L121.347 93.2412C103.007 79.5933 78 94.7015 78 94.7015L138 125.532C136.507 117.616 134.369 111.25 131.782 106.161Z" fill="#A4E9FB"/>
<path d="M198.86 125.054C198.86 125.054 212.341 115.053 226.55 128.758C240.76 142.463 252.054 128.758 252.054 128.758L261.163 139.129L257.155 143.574L264.078 142.463L271 151.723C271 151.723 240.76 168.021 221.814 140.611C202.868 113.201 177 139.129 177 139.129L198.86 125.054Z" fill="#A4E9FB"/>
<path d="M186.862 164.532L167.224 179.305L164 189.532L170.448 187.828L177.043 178.027L198 167.089L186.862 164.532Z" fill="white"/>
<path d="M102.467 151.404L86.4382 161.729L81 185.532L86.152 183.811C86.152 183.811 86.7244 161.729 96.456 161.442C106.188 161.155 120.499 160.868 121.93 152.551C123.361 144.235 102.467 151.404 102.467 151.404Z" fill="white"/>
<path d="M170 150.145C170 150.145 173.762 163.79 198.071 167.855C198.071 167.855 212.396 167.71 209.791 179.032C207.186 190.355 206.752 191.371 206.752 191.371L212.83 192.532L215 165.968L200.386 147.532L170 150.145Z" fill="white"/>
<path d="M185.089 158.817C180.59 158.824 176.211 157.385 172.608 154.715C169.015 156.24 164.853 157.92 160.173 159.675C159.469 159.938 158.757 160.203 158.031 160.471C155.688 161.33 153.228 162.2 150.651 163.082C149.805 163.371 148.947 163.662 148.078 163.95C144.707 165.071 141.161 166.188 137.443 167.299C136.562 167.562 135.671 167.822 134.769 168.08C134.548 168.147 134.327 168.21 134.103 168.273C109.385 175.352 98.6536 150.835 94.8197 138.064C94.7209 137.729 94.6221 137.401 94.532 137.072C93.6712 133.927 93.3248 130.665 93.5059 127.411C93.8809 119.458 90.0848 111.529 90.0848 111.529C89.2162 118.314 87.7426 125.009 85.6812 131.535C82.3821 141.719 71.0084 136.262 72.8425 131.535C74.6766 126.806 71.0084 116.622 71.0084 116.622C64.7736 98.0717 75.0458 95.5237 75.0458 95.5237C107.565 78.5295 136.091 121.052 138.681 125.053L175.11 119.859C182.777 115.731 192.222 116.756 198.807 122.432C205.391 128.107 207.73 137.239 204.675 145.343C201.62 153.446 193.813 158.817 185.089 158.817V158.817Z" fill="white"/>
<path d="M76.4118 99.5322L75 87.5322L81 96.2595L76.4118 99.5322Z" fill="white"/>
<path d="M73.4118 100.532L72 88.5322L78 97.2595L73.4118 100.532Z" fill="white"/>
<path d="M158.42 124.075L162.222 132.35C162.222 132.35 165.074 135.199 168.198 146.594C171.321 157.99 172 157.583 172 157.583L167.247 158.532C167.247 158.532 161.951 146.187 160.185 145.238C158.42 144.288 156.247 135.606 156.247 135.606L150 127.738L151.901 123.532L158.42 124.075Z" fill="#FFB8B8"/>
<path d="M139.532 117.123L139 114.26L140.329 111.532L154.285 114.532L160 125.441C160 125.441 152.823 122.032 151.759 129.532L145.247 124.35" fill="#2F2E41"/>
<path d="M171.624 155.913C171.624 155.913 166.914 154.71 165.837 156.581C164.761 158.451 165.03 164.596 165.03 164.729C165.03 164.863 166.645 166.199 167.183 166.199C167.721 166.199 171.085 172.21 175.66 170.073C180.236 167.935 171.624 155.913 171.624 155.913Z" fill="#2F2E41"/>
<path d="M138 89.5322C140.761 89.5322 143 87.2937 143 84.5322C143 81.7708 140.761 79.5322 138 79.5322C135.239 79.5322 133 81.7708 133 84.5322C133 87.2937 135.239 89.5322 138 89.5322Z" fill="#FFB8B8"/>
<path d="M142.82 85.5322C142.82 85.5322 143.94 90.8656 144.92 91.6275C145.901 92.3894 137.498 93.5322 137.498 93.5322C137.498 93.5322 138.758 89.8497 137.218 87.9449C135.677 86.0402 142.82 85.5322 142.82 85.5322Z" fill="#FFB8B8"/>
<path d="M156.972 117.498C156.047 117.498 153.691 117.117 151.049 116.627C148.764 116.203 146.262 115.699 144.289 115.291C142.176 114.853 140.666 114.526 140.666 114.526C140.666 114.526 140.123 117.904 138.356 117.498C136.835 117.15 132.287 101.355 131.057 96.9899C130.872 96.3349 131.148 95.6377 131.732 95.2836L137.979 91.4912L139.579 92.0992C139.579 92.0992 142.283 90.0213 143.853 89.9794C145.422 89.9375 148.14 89.5322 148.14 89.5322C148.14 89.5322 151.265 89.8024 151.809 92.0992C152.352 94.3959 152.624 108.717 154.662 111.284C156.701 113.851 159.554 117.498 156.972 117.498Z" fill="white"/>
<path d="M147 124.825C147 124.825 145.765 131.434 143.159 130.428C140.552 129.422 143.159 123.532 143.159 123.532L147 124.825Z" fill="#FFB8B8"/>
<path opacity="0.15" d="M153 110.861C153 110.861 151.692 113.975 150.649 116.532C148.401 116.114 145.941 115.617 144 115.214C144.139 114.846 144.335 114.502 144.58 114.193C145.516 113.127 144.981 112.86 144.981 112.86C144.179 111.261 144.847 109.128 144.847 109.128C143.244 104.863 145.649 99.5322 145.649 99.5322L153 110.861Z" fill="black"/>
<path d="M145.438 99.272C145.438 99.272 142.963 104.617 144.613 108.893C144.613 108.893 143.925 111.031 144.75 112.635C144.75 112.635 145.3 112.902 144.337 113.971C143.375 115.04 142.55 118.782 143.238 119.584C143.925 120.385 142.275 121.855 142.687 122.657C143.1 123.459 142 124.528 142 124.528C142 124.528 146.125 125.33 146.812 126.532C146.812 126.532 147.637 125.597 147.225 124.528C146.812 123.459 147.087 123.058 147.5 122.39C147.912 121.722 149.15 120.252 149.287 119.584C149.425 118.915 153 110.63 153 110.63L151.323 95.5322L145.438 99.272Z" fill="white"/>
<path d="M138.5 77.5322C140.433 77.5322 142 75.9652 142 74.0322C142 72.0992 140.433 70.5322 138.5 70.5322C136.567 70.5322 135 72.0992 135 74.0322C135 75.9652 136.567 77.5322 138.5 77.5322Z" fill="#2F2E41"/>
<path d="M134.762 73.0322C134.762 71.242 136.159 69.7404 138 69.5519C137.873 69.5389 137.746 69.5324 137.619 69.5322C135.62 69.5322 134 71.0992 134 73.0322C134 74.9652 135.62 76.5322 137.619 76.5322C137.746 76.5321 137.873 76.5255 138 76.5126C136.159 76.324 134.762 74.8225 134.762 73.0322Z" fill="#2F2E41"/>
<path d="M144.754 78.0161L139.597 75.5322L132.474 76.5481L131 82.5322L134.668 82.4025L135.693 80.2039V82.3663L137.386 82.3063L138.368 78.8063L138.982 82.5322L145 82.4193L144.754 78.0161Z" fill="#2F2E41"/>
<path d="M143.5 84.5322C143.776 84.5322 144 83.8607 144 83.0322C144 82.2038 143.776 81.5322 143.5 81.5322C143.224 81.5322 143 82.2038 143 83.0322C143 83.8607 143.224 84.5322 143.5 84.5322Z" fill="#FFB8B8"/>
<path d="M150 163.657C149.155 163.948 148.298 164.241 147.43 164.532L140 152.532L150 163.657Z" fill="#A4E9FB"/>
<path d="M160 159.748C159.337 160.007 158.665 160.268 157.98 160.532L152 150.532L160 159.748Z" fill="#A4E9FB"/>
<path d="M137 167.75C136.134 168.013 135.258 168.274 134.371 168.532L127 156.532L137 167.75Z" fill="#A4E9FB"/>
</svg>
