<svg width="28" height="23" viewBox="0 0 28 23" fill="none" xmlns="http://www.w3.org/2000/svg">
<path d="M27.2632 10.3143H0.736842C0.329895 10.3143 0 10.6442 0 11.0512C0 11.4581 0.329895 11.788 0.736842 11.788H27.2632C27.6701 11.788 28 11.4581 28 11.0512C28 10.6442 27.6701 10.3143 27.2632 10.3143Z" fill="#CACDDE"/>
<path d="M16.4263 20.8474C16.1385 21.1351 16.1385 21.6017 16.4263 21.8894C16.714 22.1772 17.1806 22.1772 17.4683 21.8894L27.7841 11.5737C28.0719 11.2859 28.0719 10.8194 27.7841 10.5316L17.4683 0.215816C17.1806 -0.0719387 16.714 -0.0719387 16.4263 0.215816C16.1385 0.503571 16.1385 0.970113 16.4263 1.25787L26.221 11.0526L16.4263 20.8474Z" fill="#CACDDE"/>
</svg>
