<svg width="176" height="34" viewBox="0 0 176 34" fill="none" xmlns="http://www.w3.org/2000/svg">
<rect width="17.3333" height="34" fill="#204DD4"/>
<path opacity="0.5" fill-rule="evenodd" clip-rule="evenodd" d="M17 34C26.3888 34 34 26.3888 34 17C34 7.61116 26.3888 0 17 0C7.61116 0 0 7.61116 0 17C0 26.3888 7.61116 34 17 34Z" fill="#4AD4F8"/>
<path fill-rule="evenodd" clip-rule="evenodd" d="M111.843 24.279C112.907 25.0637 114.172 25.456 115.638 25.456C116.269 25.456 116.911 25.357 117.563 25.159C118.216 24.961 118.803 24.664 119.323 24.268C119.844 23.872 120.269 23.3733 120.599 22.772C120.929 22.1707 121.094 21.4593 121.094 20.638C121.094 19.3473 120.728 18.3207 119.994 17.558C119.261 16.7953 118.227 16.1867 116.892 15.732L115.924 15.402C115.03 15.094 114.406 14.786 114.054 14.478C113.702 14.17 113.526 13.818 113.526 13.422C113.526 13.0407 113.699 12.729 114.043 12.487C114.388 12.245 114.854 12.124 115.44 12.124C115.998 12.124 116.452 12.267 116.804 12.553C117.156 12.839 117.413 13.2167 117.574 13.686L120.544 12.432C120.412 12.0507 120.225 11.6547 119.983 11.244C119.741 10.8333 119.415 10.463 119.004 10.133C118.594 9.803 118.095 9.53167 117.508 9.319C116.922 9.10633 116.218 9 115.396 9C114.619 9 113.908 9.11733 113.262 9.352C112.617 9.58667 112.067 9.90566 111.612 10.309C111.158 10.7123 110.806 11.1927 110.556 11.75C110.307 12.3073 110.182 12.9013 110.182 13.532C110.182 14.1187 110.292 14.6503 110.512 15.127C110.732 15.6037 111.018 16.0253 111.37 16.392C111.722 16.7587 112.115 17.0703 112.547 17.327C112.98 17.5837 113.402 17.7853 113.812 17.932L114.78 18.284C115.338 18.4893 115.8 18.6837 116.166 18.867C116.533 19.0503 116.826 19.2337 117.046 19.417C117.266 19.6003 117.424 19.7983 117.519 20.011C117.615 20.2237 117.662 20.4547 117.662 20.704C117.662 20.9533 117.604 21.1733 117.486 21.364C117.369 21.5547 117.219 21.7123 117.035 21.837C116.852 21.9617 116.639 22.0533 116.397 22.112C116.155 22.1707 115.902 22.2 115.638 22.2C114.832 22.2 114.208 21.958 113.768 21.474C113.328 20.99 113.013 20.374 112.822 19.626L109.588 20.902C110.028 22.3687 110.78 23.4943 111.843 24.279ZM53.566 9.352H48V25.104H53.566C54.8273 25.104 55.964 24.9133 56.976 24.532C57.988 24.1507 58.846 23.6153 59.55 22.926C60.254 22.2367 60.793 21.408 61.167 20.44C61.541 19.472 61.728 18.4013 61.728 17.228C61.728 16.0547 61.541 14.984 61.167 14.016C60.793 13.048 60.254 12.2193 59.55 11.53C58.846 10.8407 57.988 10.3053 56.976 9.924C55.964 9.54266 54.8273 9.352 53.566 9.352ZM55.59 21.507C54.974 21.7343 54.2407 21.848 53.39 21.848H51.432V12.608H53.39C54.2407 12.608 54.974 12.7217 55.59 12.949C56.206 13.1763 56.7157 13.4953 57.119 13.906C57.5223 14.3167 57.8193 14.8043 58.01 15.369C58.2007 15.9337 58.296 16.5533 58.296 17.228C58.296 17.9027 58.2007 18.5223 58.01 19.087C57.8193 19.6517 57.5223 20.1393 57.119 20.55C56.7157 20.9607 56.206 21.2797 55.59 21.507ZM69.0896 9.352H73.0496L78.9456 25.104H75.1616L73.9516 21.584H68.1876L66.9776 25.104H63.1936L69.0896 9.352ZM71.7076 15.16L72.8516 18.46H69.2876L70.4316 15.16L70.9596 13.224H71.1796L71.7076 15.16ZM83.7552 25.104V12.608H79.3552V9.352H91.5872V12.608H87.1872V25.104H83.7552ZM101.853 9.352H97.8929L91.9969 25.104H95.7809L96.9909 21.584H102.755L103.965 25.104H107.749L101.853 9.352ZM101.655 18.46L100.511 15.16L99.9829 13.224H99.7629L99.2349 15.16L98.0909 18.46H101.655ZM124.584 9.352H128.016V25.104H124.584V9.352ZM133.431 24.279C134.494 25.0637 135.759 25.456 137.226 25.456C137.856 25.456 138.498 25.357 139.151 25.159C139.803 24.961 140.39 24.664 140.911 24.268C141.431 23.872 141.857 23.3733 142.187 22.772C142.517 22.1707 142.682 21.4593 142.682 20.638C142.682 19.3473 142.315 18.3207 141.582 17.558C140.848 16.7953 139.814 16.1867 138.48 15.732L137.512 15.402C136.617 15.094 135.994 14.786 135.642 14.478C135.29 14.17 135.114 13.818 135.114 13.422C135.114 13.0407 135.286 12.729 135.631 12.487C135.975 12.245 136.441 12.124 137.028 12.124C137.585 12.124 138.04 12.267 138.392 12.553C138.744 12.839 139 13.2167 139.162 13.686L142.132 12.432C142 12.0507 141.813 11.6547 141.571 11.244C141.329 10.8333 141.002 10.463 140.592 10.133C140.181 9.803 139.682 9.53167 139.096 9.319C138.509 9.10633 137.805 9 136.984 9C136.206 9 135.495 9.11733 134.85 9.352C134.204 9.58667 133.654 9.90566 133.2 10.309C132.745 10.7123 132.393 11.1927 132.144 11.75C131.894 12.3073 131.77 12.9013 131.77 13.532C131.77 14.1187 131.88 14.6503 132.1 15.127C132.32 15.6037 132.606 16.0253 132.958 16.392C133.31 16.7587 133.702 17.0703 134.135 17.327C134.567 17.5837 134.989 17.7853 135.4 17.932L136.368 18.284C136.925 18.4893 137.387 18.6837 137.754 18.867C138.12 19.0503 138.414 19.2337 138.634 19.417C138.854 19.6003 139.011 19.7983 139.107 20.011C139.202 20.2237 139.25 20.4547 139.25 20.704C139.25 20.9533 139.191 21.1733 139.074 21.364C138.956 21.5547 138.806 21.7123 138.623 21.837C138.439 21.9617 138.227 22.0533 137.985 22.112C137.743 22.1707 137.49 22.2 137.226 22.2C136.419 22.2 135.796 21.958 135.356 21.474C134.916 20.99 134.6 20.374 134.41 19.626L131.176 20.902C131.616 22.3687 132.367 23.4943 133.431 24.279ZM150.527 9.352H154.487L160.383 25.104H156.599L155.389 21.584H149.625L148.415 25.104H144.631L150.527 9.352ZM153.145 15.16L154.289 18.46H150.725L151.869 15.16L152.397 13.224H152.617L153.145 15.16ZM163.279 9.352H169.219C170.07 9.352 170.832 9.48033 171.507 9.737C172.182 9.99367 172.75 10.3493 173.212 10.804C173.674 11.2587 174.026 11.7977 174.268 12.421C174.51 13.0443 174.631 13.7227 174.631 14.456C174.631 14.9693 174.547 15.446 174.378 15.886C174.209 16.326 173.982 16.733 173.696 17.107C173.41 17.481 173.076 17.811 172.695 18.097C172.314 18.383 171.903 18.6213 171.463 18.812V19.01L175.577 24.884V25.104H171.661L167.679 19.428H166.711V25.104H163.279V9.352ZM170.671 15.721C170.319 16.0803 169.835 16.26 169.219 16.26H166.711V12.52H169.219C169.879 12.52 170.374 12.6997 170.704 13.059C171.034 13.4183 171.199 13.862 171.199 14.39C171.199 14.918 171.023 15.3617 170.671 15.721Z" fill="url(#paint0_linear)"/>
<defs>
<linearGradient id="paint0_linear" x1="48" y1="25.456" x2="175.577" y2="25.456" gradientUnits="userSpaceOnUse">
<stop stop-color="#204DD4"/>
<stop offset="1" stop-color="#4AD4F8"/>
</linearGradient>
</defs>
</svg>
