<svg width="60" height="60" viewBox="0 0 60 60" fill="none" xmlns="http://www.w3.org/2000/svg">
<path fill-rule="evenodd" clip-rule="evenodd" d="M29.9998 38.7096C27.3277 38.7096 25.1611 36.5431 25.1611 33.8709C25.1644 31.1997 27.3286 29.0355 29.9998 29.0322C32.672 29.0322 34.8386 31.1988 34.8386 33.8709C34.8386 36.5431 32.672 38.7096 29.9998 38.7096ZM29.9998 36.7742C31.6031 36.7742 32.9031 35.4742 32.9031 33.8709C32.9031 32.2676 31.6031 30.9677 29.9998 30.9677C28.3965 30.9677 27.0966 32.2676 27.0966 33.8709C27.0966 35.4742 28.3965 36.7742 29.9998 36.7742Z" fill="#231F20"/>
<path d="M30 39.6775C29.4655 39.6775 29.0322 40.1108 29.0322 40.6452V41.613C29.0322 42.1474 29.4655 42.5807 30 42.5807C30.5344 42.5807 30.9677 42.1474 30.9677 41.613V40.6452C30.9677 40.1108 30.5344 39.6775 30 39.6775Z" fill="#231F20"/>
<path fill-rule="evenodd" clip-rule="evenodd" d="M30 7.74341C30.3799 7.74341 30.7249 7.96597 30.8817 8.31186L44.4301 38.3119C44.562 38.6044 44.5407 38.9432 44.373 39.2168L37.5387 50.3226H37.7419C38.2764 50.3226 38.7097 50.7559 38.7097 51.2904V54.1936H40.6452C41.1796 54.1936 41.6129 54.6269 41.6129 55.1613V59.0323C41.6129 59.5667 41.1796 60.0001 40.6452 60.0001H19.3548C18.8204 60.0001 18.3871 59.5667 18.3871 59.0323V55.1613C18.3871 54.6269 18.8204 54.1936 19.3548 54.1936H21.2903V51.2904C21.2903 50.7559 21.7236 50.3226 22.2581 50.3226H23.3137L15.6563 39.2602C15.4631 38.9814 15.4305 38.6214 15.5699 38.3119L29.1183 8.31186C29.2751 7.96597 29.6201 7.74341 30 7.74341ZM20.3226 56.1291V58.0646H39.6774V56.1291H20.3226ZM23.2258 54.1936V52.2581H36.7742V54.1936H23.2258ZM30.9677 50.3226H35.2654L42.455 38.6422L30 11.0615L17.5588 38.6129L25.6683 50.3226H29.0323V44.5162C29.0323 43.9818 29.4656 43.5484 30 43.5484C30.5344 43.5484 30.9677 43.9818 30.9677 44.5162V50.3226Z" fill="#231F20"/>
<path fill-rule="evenodd" clip-rule="evenodd" d="M58.0404 29.0323H59.0323C59.5667 29.0323 60 29.4656 60 30V33.871C60 34.4054 59.5667 34.8387 59.0323 34.8387H55.1613C54.6269 34.8387 54.1936 34.4054 54.1936 33.871V30C54.1936 29.4656 54.6269 29.0323 55.1613 29.0323H56.1049C55.6092 15.8709 45.086 4.47675 32.9032 3.89885V4.83871C32.9032 5.37314 32.4699 5.80645 31.9355 5.80645H28.0645C27.5301 5.80645 27.0968 5.37314 27.0968 4.83871V3.89885C14.914 4.47675 4.39075 15.8709 3.89507 29.0323H4.83871C5.37314 29.0323 5.80645 29.4656 5.80645 30V33.871C5.80645 34.4054 5.37314 34.8387 4.83871 34.8387H0.967742C0.43331 34.8387 0 34.4054 0 33.871V30C0 29.4656 0.43331 29.0323 0.967742 29.0323H1.95958C2.46094 14.8356 13.8844 2.54127 27.0968 1.96336V0.967742C27.0968 0.43331 27.5301 0 28.0645 0H31.9355C32.4699 0 32.9032 0.43331 32.9032 0.967742V1.96336C46.1156 2.54127 57.5391 14.8356 58.0404 29.0323ZM1.93548 32.9032H3.87097V30.9677H1.93548V32.9032ZM30.9677 3.87097H29.0323V1.93548H30.9677V3.87097ZM56.129 32.9032H58.0645V30.9677H56.129V32.9032Z" fill="#231F20"/>
</svg>

