<svg width="18" height="19" viewBox="0 0 18 19" fill="none" xmlns="http://www.w3.org/2000/svg">
<path fill-rule="evenodd" clip-rule="evenodd" d="M1.51743 18.0174L4.81263 14.7222H15.1111C16.5839 14.7222 17.7778 13.5283 17.7778 12.0556V3.16667C17.7778 1.69391 16.5839 0.5 15.1111 0.5H2.66667C1.19391 0.5 0 1.69391 0 3.16667V17.3889C0 18.1808 0.95746 18.5774 1.51743 18.0174ZM4.44444 12.9444C4.2087 12.9444 3.9826 13.0381 3.81591 13.2048L1.77778 15.2429V3.16667C1.77778 2.67575 2.17575 2.27778 2.66667 2.27778H15.1111C15.602 2.27778 16 2.67575 16 3.16667V12.0556C16 12.5465 15.602 12.9444 15.1111 12.9444H4.44444Z" fill="white"/>
</svg>
