<svg width="16" height="17" viewBox="0 0 16 17" fill="none" xmlns="http://www.w3.org/2000/svg">
<path fill-rule="evenodd" clip-rule="evenodd" d="M15.9955 6.6415C15.6325 3.41139 13.0811 0.863196 9.85053 0.504306L9.76939 0.5L9.68997 0.504955C9.37657 0.54268 9.11869 0.791597 9.08233 1.1189C9.03991 1.50074 9.31507 1.84468 9.69692 1.8871C12.2814 2.17422 14.3225 4.21277 14.6129 6.79686C14.6558 7.17866 15 7.45339 15.3818 7.41048C15.7636 7.36758 16.0384 7.0233 15.9955 6.6415ZM6.33123 2.99692C6.18375 1.9533 5.29096 1.18546 4.24347 1.19567L2.16329 1.19564C1.57673 1.19629 1.01818 1.44304 0.623261 1.87566C0.228311 2.30832 0.0333901 2.88705 0.0861137 3.47049C0.327061 5.74025 1.09567 7.91089 2.33075 9.81741C3.45029 11.5793 4.9484 13.0774 6.71542 14.2002C8.6079 15.4275 10.768 16.196 13.0168 16.4403C13.6146 16.4945 14.195 16.2982 14.6281 15.9009C15.0611 15.5037 15.3065 14.9423 15.3042 14.3546L15.3039 12.2877L15.3041 12.2739L15.3042 12.2783V12.2705L15.3041 12.2739L15.303 12.1524C15.2636 11.1517 14.5135 10.3112 13.5092 10.1695C12.8871 10.0874 12.2824 9.93677 11.7004 9.7196C10.9393 9.43351 10.0796 9.61687 9.50024 10.1898L8.99863 10.6913L8.7446 10.5242C7.57142 9.72731 6.57197 8.69892 5.80852 7.50124L6.30736 7.00239C6.883 6.4203 7.06636 5.56054 6.77968 4.79789C6.56309 4.21747 6.41246 3.61277 6.33123 2.99692ZM2.16407 2.58694L4.25025 2.58694C4.60624 2.5835 4.90388 2.83948 4.95275 3.18524C5.04682 3.89873 5.2229 4.60556 5.47675 5.28586C5.5729 5.54165 5.51178 5.82824 5.32082 6.02135L4.44009 6.90207C4.21865 7.1235 4.17247 7.4656 4.32726 7.73782C5.37945 9.58827 6.9116 11.1204 8.76204 12.1726C9.03427 12.3274 9.37636 12.2812 9.5978 12.0598L10.4813 11.1763C10.6716 10.9881 10.9582 10.927 11.2124 11.0225C11.8943 11.277 12.6011 11.453 13.321 11.548C13.6646 11.5965 13.9218 11.9001 13.9131 12.2532L13.9129 14.3574C13.9137 14.5561 13.8318 14.7433 13.6875 14.8757C13.5432 15.0081 13.3497 15.0736 13.1546 15.0559C11.1347 14.8363 9.18233 14.1418 7.46701 13.0294C5.86698 12.0127 4.51502 10.6607 3.50173 9.06609C2.38218 7.33785 1.68751 5.37602 1.47071 3.33442C1.4542 3.15079 1.51917 2.95788 1.65082 2.81366C1.78248 2.66943 1.96872 2.58716 2.16407 2.58694ZM9.90694 3.29554C11.5748 3.62095 12.8789 4.92504 13.2043 6.59293C13.2779 6.97001 13.0319 7.33535 12.6548 7.40892C12.2777 7.48249 11.9123 7.23644 11.8388 6.85935C11.6218 5.74743 10.7524 4.87803 9.64051 4.66109C9.26342 4.58752 9.01738 4.22219 9.09095 3.8451C9.16452 3.46801 9.52985 3.22196 9.90694 3.29554Z" fill="black"/>
</svg>
