<svg width="160" height="160" viewBox="0 0 160 160" fill="none" xmlns="http://www.w3.org/2000/svg">
<path fill-rule="evenodd" clip-rule="evenodd" d="M80 160C124.183 160 160 124.183 160 80C160 35.8172 124.183 0 80 0C35.8172 0 0 35.8172 0 80C0 124.183 35.8172 160 80 160Z" fill="#A4E9FB"/>
<path fill-rule="evenodd" clip-rule="evenodd" d="M44.9937 82.2746H47.4906V79.7777H44.9937V82.2746ZM52.4844 82.2746H49.9875V79.7777H52.4844V82.2746ZM57.4783 82.2746H54.9813V79.7777H57.4783V82.2746Z" fill="#24262B"/>
<path d="M88.1905 77.0312L86.6924 75.0336L90.3541 72.287L86.6924 69.5404L88.1905 67.5428L94.5165 72.287L88.1905 77.0312Z" fill="#24262B"/>
<path d="M64.9692 57.3054H82.4477V59.8023H64.9692V57.3054Z" fill="#24262B"/>
<path d="M64.9692 62.2993H82.4477V64.7962H64.9692V62.2993Z" fill="#24262B"/>
<path d="M64.9692 67.2931H82.4477V69.79H64.9692V67.2931Z" fill="#24262B"/>
<path d="M64.9692 72.287H77.4539V74.7839H64.9692V72.287Z" fill="#24262B"/>
<path d="M79.9507 72.287H82.4476V74.7839H79.9507V72.287Z" fill="#24262B"/>
<path fill-rule="evenodd" clip-rule="evenodd" d="M107.417 108.492V58.2776H109.914V108.492C109.914 111.934 107.114 114.735 103.672 114.735H46.2423C42.8003 114.735 40 111.934 40 108.492V81.0262C40 77.5841 42.8003 74.7838 46.2423 74.7838H49.9877V42.3239H89.9747V44.8208H52.4846V52.3115H69.4462L71.9431 49.8146H86.1931V52.3115H72.9769L70.4799 54.8085H52.4846V74.7838H54.9815C56.9354 74.7838 58.8031 75.7164 59.9754 77.2795L61.8481 79.7777H93.6838C97.1258 79.7777 99.9261 82.578 99.9261 86.02V108.492C99.9261 110.557 101.607 112.238 103.672 112.238C105.736 112.238 107.417 110.557 107.417 108.492ZM42.4969 108.492C42.4969 110.557 44.1774 112.238 46.2423 112.238H98.6802C97.8961 111.194 97.4292 109.897 97.4292 108.492V86.02C97.4292 83.955 95.7488 82.2746 93.6838 82.2746H60.5996L57.9778 78.7777C57.275 77.8401 56.1538 77.2808 54.9815 77.2808H46.2423C44.1774 77.2808 42.4969 78.9612 42.4969 81.0262V108.492Z" fill="#24262B"/>
<path fill-rule="evenodd" clip-rule="evenodd" d="M117.37 48.7904V53.7842L113.118 54.6344C112.915 55.2849 112.65 55.9066 112.338 56.4996L114.747 60.1152L111.217 63.6458L107.601 61.2363C107.008 61.5484 106.386 61.8143 105.736 62.0166L104.886 66.2689H99.8918L99.0416 62.0166C98.3912 61.8131 97.7695 61.5484 97.1764 61.2363L93.5609 63.6458L90.0302 60.1152L92.4398 56.4996C92.1277 55.9066 91.8617 55.2849 91.6595 54.6344L87.4072 53.7842V48.7904L91.6607 47.9389C91.8642 47.2885 92.1289 46.6668 92.441 46.0737L90.0302 42.4582L93.5609 38.9276L97.1764 41.3383C97.7695 41.0262 98.3912 40.7603 99.0416 40.558L99.8918 36.3058H104.886L105.736 40.558C106.386 40.7615 107.008 41.0262 107.601 41.3383L111.217 38.9276L114.749 42.4595L112.338 46.075C112.65 46.668 112.916 47.2897 113.118 47.9402L117.37 48.7904ZM97.3949 51.2873C97.3949 54.0452 99.6309 56.2812 102.389 56.2812C105.147 56.2812 107.383 54.0452 107.383 51.2873C107.383 48.5295 105.147 46.2935 102.389 46.2935C99.6309 46.2935 97.3949 48.5295 97.3949 51.2873Z" fill="white"/>
<path fill-rule="evenodd" clip-rule="evenodd" d="M96.1465 51.2874C96.1465 47.8453 98.9468 45.045 102.389 45.045C105.831 45.045 108.631 47.8453 108.631 51.2874C108.631 54.7294 105.831 57.5297 102.389 57.5297C98.9468 57.5297 96.1465 54.7294 96.1465 51.2874ZM98.6434 51.2874C98.6434 53.3523 100.324 55.0327 102.389 55.0327C104.454 55.0327 106.134 53.3523 106.134 51.2874C106.134 49.2224 104.454 47.542 102.389 47.542C100.324 47.542 98.6434 49.2224 98.6434 51.2874Z" fill="#24262B"/>
<path d="M97.2714 62.6721C97.4986 62.7757 97.7271 62.8719 97.9568 62.9593L98.8682 67.5161H105.908L106.82 62.9593C107.049 62.8719 107.278 62.7757 107.505 62.6721L111.375 65.2527L116.354 60.2738L113.774 56.4036C113.877 56.1751 113.973 55.9467 114.061 55.7182L118.619 54.8081V47.7667L114.062 46.8554C113.886 46.3997 113.679 45.944 113.443 45.4933L111.233 46.6556C111.521 47.2062 111.756 47.7642 111.926 48.3111L112.147 49.0189L116.122 49.8142V52.7606L112.146 53.5559L111.925 54.2637C111.755 54.8106 111.521 55.3674 111.232 55.9192L110.887 56.5759L113.141 59.9567L111.058 62.0404L107.677 59.7857L107.022 60.1302C106.474 60.4186 105.916 60.6521 105.365 60.8244L104.659 61.0454L103.863 65.0205H100.916L100.12 61.0454L99.4138 60.8244C98.8632 60.6521 98.3051 60.4186 97.7571 60.1302L97.1016 59.7857L93.7208 62.0404L90.9143 59.2326L89.1489 60.9979L93.4037 65.2527L97.2714 62.6721Z" fill="#24262B"/>
<path d="M86.1587 47.7667V54.808L90.7156 55.7194C90.8916 56.1751 91.0989 56.6308 91.3348 57.0815L93.5446 55.9192C93.2562 55.3686 93.0215 54.8105 92.8517 54.2637L92.6307 53.5558L88.6556 52.7606V49.8142L92.632 49.0189L92.8529 48.311C93.0227 47.7642 93.2562 47.2074 93.5458 46.6556L93.8904 45.9989L91.6369 42.6181L93.7206 40.5344L97.1027 42.7891L97.7581 42.4433C98.305 42.1561 98.8618 41.9227 99.4124 41.7504L100.119 41.5294L100.914 37.5543H103.862L104.657 41.5294L105.364 41.7504C105.914 41.9227 106.472 42.1561 107.018 42.4433L107.673 42.7891L111.056 40.5344L113.863 43.3422L115.629 41.5768L111.375 37.3221L107.504 39.9014C107.275 39.7978 107.048 39.7029 106.818 39.6143L105.908 35.0574H98.868L97.9567 39.6143C97.7269 39.7029 97.4997 39.7978 97.2712 39.9014L93.3998 37.3221L88.4222 42.2997L91.0027 46.1699C90.8991 46.3984 90.803 46.6269 90.7156 46.8553L86.1587 47.7667Z" fill="#24262B"/>
<path d="M59.9756 47.3177H62.4725V49.8147H59.9756V47.3177Z" fill="#24262B"/>
<path d="M64.9692 47.3177H67.4662V49.8147H64.9692V47.3177Z" fill="#24262B"/>
<path d="M54.9814 47.3177H57.4784V49.8147H54.9814V47.3177Z" fill="#24262B"/>
<path d="M60.4749 57.5552L54.1489 62.2993L60.4749 67.0435L61.973 65.0459L58.3113 62.2993L61.973 59.5527L60.4749 57.5552Z" fill="#24262B"/>
</svg>
