<svg width="160" height="160" viewBox="0 0 160 160" fill="none" xmlns="http://www.w3.org/2000/svg">
<path fill-rule="evenodd" clip-rule="evenodd" d="M80 160C124.183 160 160 124.183 160 80C160 35.8172 124.183 0 80 0C35.8172 0 0 35.8172 0 80C0 124.183 35.8172 160 80 160Z" fill="#A4E9FB"/>
<path fill-rule="evenodd" clip-rule="evenodd" d="M112.43 82.5187L118.441 83.721V91.4365L112.43 92.6389C112.232 93.2085 112.002 93.7602 111.741 94.2977L115.142 99.3989L109.686 104.855L104.585 101.454C104.049 101.714 103.496 101.945 102.926 102.143L101.724 108.153H94.0084L92.8061 102.143C92.2364 101.945 91.6848 101.715 91.1472 101.454L86.046 104.855L80.5899 99.3989L83.9911 94.2977C83.7314 93.7615 83.4999 93.2085 83.3019 92.6389L77.2915 91.4365V83.721L83.3019 82.5187C83.4999 81.9491 83.7301 81.3974 83.9911 80.8599L80.5899 75.7587L86.046 70.3025L91.1472 73.7038C91.6835 73.444 92.2364 73.2125 92.8061 73.0145L94.0084 67.0042H101.724L102.926 73.0145C103.496 73.2125 104.048 73.4427 104.585 73.7038L109.686 70.3025L115.142 75.7587L111.741 80.8599C112.001 81.3961 112.232 81.9491 112.43 82.5187ZM91.4366 87.5788C91.4366 91.1292 94.3157 94.0084 97.8661 94.0084C101.417 94.0084 104.296 91.1292 104.296 87.5788C104.296 84.0284 101.417 81.1492 97.8661 81.1492C94.3157 81.1492 91.4366 84.0284 91.4366 87.5788Z" fill="white"/>
<path fill-rule="evenodd" clip-rule="evenodd" d="M72.9118 66.1285L77.2917 67.0042V72.1478L72.9118 73.0235C72.7022 73.6935 72.4296 74.3339 72.1081 74.9447L74.5899 78.6687L70.9534 82.3053L67.2294 79.8235C66.6186 80.1449 65.9782 80.4188 65.3082 80.6272L64.4325 85.007H59.2888L58.4131 80.6272C57.7432 80.4176 57.1028 80.1449 56.492 79.8235L52.768 82.3053L49.1314 78.6687L51.6132 74.9447C51.2917 74.3339 51.0178 73.6935 50.8095 73.0235L46.4297 72.1478V67.0042L50.8108 66.1272C51.0204 65.4572 51.293 64.8168 51.6145 64.206L49.1314 60.482L52.768 56.8454L56.492 59.3285C57.1028 59.0071 57.7432 58.7332 58.4131 58.5248L59.2888 54.145H64.4325L65.3082 58.5248C65.9782 58.7345 66.6186 59.0071 67.2294 59.3285L70.9534 56.8454L74.5912 60.4833L72.1081 64.2073C72.4296 64.8181 72.7035 65.4585 72.9118 66.1285ZM56.717 69.576C56.717 72.4166 59.0201 74.7197 61.8607 74.7197C64.7013 74.7197 67.0043 72.4166 67.0043 69.576C67.0043 66.7354 64.7013 64.4323 61.8607 64.4323C59.0201 64.4323 56.717 66.7354 56.717 69.576Z" fill="white"/>
<rect x="60.5747" y="88.8649" width="2.57183" height="2.57183" fill="#24262B"/>
<rect x="60.5747" y="94.0084" width="2.57183" height="2.57183" fill="#24262B"/>
<rect x="60.5747" y="99.1521" width="2.57183" height="2.57183" fill="#24262B"/>
<rect x="96.5806" y="60.5747" width="2.57183" height="2.57183" fill="#24262B"/>
<rect x="96.5806" y="55.431" width="2.57183" height="2.57183" fill="#24262B"/>
<rect x="96.5806" y="50.2874" width="2.57183" height="2.57183" fill="#24262B"/>
<path fill-rule="evenodd" clip-rule="evenodd" d="M83.7211 50.2873H42.5718V104.296H40V46.4296C40 42.8843 42.8843 40 46.4296 40H79.8634C83.4086 40 86.2929 42.8843 86.2929 46.4296V52.8592H83.7211V50.2873ZM79.8634 42.5718H46.4296C44.3027 42.5718 42.5718 44.3027 42.5718 46.4296V47.7155H83.7211V46.4296C83.7211 44.3027 81.9903 42.5718 79.8634 42.5718Z" fill="#24262B"/>
<path fill-rule="evenodd" clip-rule="evenodd" d="M46.4296 119.727C42.8843 119.727 40 116.842 40 113.297V106.868H86.2929V113.297C86.2929 116.842 83.4086 119.727 79.8634 119.727H46.4296ZM83.7211 109.439H42.5718V113.297C42.5718 115.424 44.3027 117.155 46.4296 117.155H79.8634C81.9903 117.155 83.7211 115.424 83.7211 113.297V109.439Z" fill="#24262B"/>
<rect x="56.7168" y="112.011" width="12.8592" height="2.57183" fill="#24262B"/>
<path fill-rule="evenodd" clip-rule="evenodd" d="M90.1509 87.5789C90.1509 83.3238 93.6113 79.8634 97.8664 79.8634C102.121 79.8634 105.582 83.3238 105.582 87.5789C105.582 91.834 102.121 95.2944 97.8664 95.2944C93.6113 95.2944 90.1509 91.834 90.1509 87.5789ZM92.7227 87.5789C92.7227 90.4156 95.0296 92.7226 97.8664 92.7226C100.703 92.7226 103.01 90.4156 103.01 87.5789C103.01 84.7422 100.703 82.4352 97.8664 82.4352C95.0296 82.4352 92.7227 84.7422 92.7227 87.5789Z" fill="#3F3A34"/>
<path fill-rule="evenodd" clip-rule="evenodd" d="M55.4312 69.5761C55.4312 66.0308 58.3155 63.1465 61.8607 63.1465C65.406 63.1465 68.2903 66.0308 68.2903 69.5761C68.2903 73.1213 65.406 76.0056 61.8607 76.0056C58.3155 76.0056 55.4312 73.1213 55.4312 69.5761ZM58.003 69.5761C58.003 71.703 59.7338 73.4338 61.8607 73.4338C63.9876 73.4338 65.7185 71.703 65.7185 69.5761C65.7185 67.4492 63.9876 65.7183 61.8607 65.7183C59.7338 65.7183 58.003 67.4492 58.003 69.5761Z" fill="#24262B"/>
<path d="M56.5898 81.3023C56.8238 81.4091 57.0592 81.5081 57.2958 81.5981L58.2345 86.2917H65.4858L66.4245 81.5981C66.6611 81.5081 66.8964 81.4091 67.1304 81.3023L71.1168 83.9603L76.245 78.8321L73.587 74.8458C73.6938 74.6104 73.7928 74.3751 73.8828 74.1398L78.5777 73.2024V65.9498L73.8841 65.0111C73.7028 64.5417 73.4893 64.0724 73.2463 63.6082L70.9702 64.8053C71.2672 65.3724 71.509 65.9472 71.6839 66.5105L71.9115 67.2396L76.0058 68.0587V71.0935L71.9102 71.9126L71.6826 72.6417C71.5077 73.2049 71.2672 73.7785 70.9689 74.3468L70.614 75.0232L72.9351 78.5055L70.7902 80.6517L67.3079 78.3293L66.6328 78.6842C66.0683 78.9813 65.4935 79.2217 64.9264 79.3992L64.1986 79.6268L63.3794 83.7212H60.3434L59.5243 79.6268L58.7964 79.3992C58.2293 79.2217 57.6545 78.9813 57.09 78.6842L56.4149 78.3293L52.9327 80.6517L50.0419 77.7597L48.2236 79.5779L52.606 83.9603L56.5898 81.3023Z" fill="#24262B"/>
<path d="M45.1436 65.9497V73.2023L49.8371 74.141C50.0185 74.6104 50.2319 75.0797 50.475 75.544L52.751 74.3468C52.454 73.7797 52.2122 73.2049 52.0373 72.6417L51.8097 71.9125L47.7154 71.0934V68.0586L51.811 67.2395L52.0386 66.5104C52.2135 65.9472 52.454 65.3737 52.7523 64.8053L53.1072 64.1289L50.7862 60.6466L52.9323 58.5004L56.4159 60.8228L57.091 60.4666C57.6542 60.1708 58.2277 59.9304 58.7948 59.7529L59.5227 59.5253L60.3418 55.431H63.3778L64.197 59.5253L64.9248 59.7529C65.4919 59.9304 66.0667 60.1708 66.6286 60.4666L67.3037 60.8228L70.7873 58.5004L73.6793 61.3925L75.4976 59.5742L71.1165 55.1918L67.1288 57.8485C66.8935 57.7418 66.6595 57.644 66.4229 57.5527L65.4854 52.8591H58.2342L57.2955 57.5527C57.0588 57.644 56.8248 57.7418 56.5895 57.8485L52.6019 55.1918L47.4749 60.3187L50.1329 64.3051C50.0262 64.5404 49.9272 64.7757 49.8371 65.011L45.1436 65.9497Z" fill="#24262B"/>
<path d="M119.727 92.491V82.6666L113.385 81.4C113.237 81.0284 113.073 80.6606 112.897 80.298L110.584 81.4231C110.826 81.9221 111.039 82.4313 111.214 82.9405L111.456 83.6362L117.155 84.7755V90.3808L111.456 91.5214L111.214 92.2171C111.038 92.7263 110.826 93.2369 110.584 93.7345L110.261 94.3967L113.488 99.2356L109.523 103.2L104.683 99.975L104.021 100.298C103.523 100.54 103.012 100.753 102.503 100.928L101.808 101.17L100.67 106.868H95.0629L93.9223 101.168L93.2266 100.927C92.7174 100.75 92.2069 100.538 91.7092 100.297L91.047 99.9738L86.2068 103.199L81.4965 98.4898L79.6782 100.308L85.8802 106.509L91.2617 102.921C91.4019 102.982 91.5434 103.041 91.6848 103.097L92.954 109.439H102.78L104.046 103.097C104.188 103.041 104.329 102.982 104.469 102.921L109.851 106.509L116.799 99.5636L113.21 94.1807C113.27 94.0406 113.329 93.8991 113.386 93.7576L119.727 92.491Z" fill="#24262B"/>
<path d="M78.9339 75.5941L82.5229 80.9756C82.4624 81.1158 82.4033 81.2573 82.3467 81.3987L76.0059 82.6666V92.4923L82.348 93.7589C82.4959 94.1306 82.6592 94.4983 82.8354 94.8597L85.1487 93.7345C84.907 93.2368 84.6935 92.7263 84.5186 92.2171L84.2769 91.5214L78.5777 90.3821V84.7755L84.2769 83.6349L84.5186 82.9392C84.6948 82.43 84.907 81.9208 85.1487 81.4219L85.4715 80.7583L82.2451 75.9207L86.2096 71.9562L91.0485 75.1813L91.712 74.8598C92.2084 74.6181 92.7202 74.4046 93.232 74.2272L93.9251 73.9854L95.0618 68.2901H100.67L101.809 73.9867L102.502 74.2284C103.013 74.4059 103.526 74.6194 104.022 74.8611L104.686 75.1826L109.525 71.9575L114.235 76.6678L116.053 74.8495L109.851 68.6489L104.468 72.2366C104.329 72.1761 104.188 72.1183 104.047 72.0617L102.777 65.7183H92.9542L91.6863 72.0604C91.5449 72.117 91.4034 72.1748 91.2645 72.2353L85.8817 68.6476L78.9339 75.5941Z" fill="#24262B"/>
</svg>
