<svg width="18" height="16" viewBox="0 0 18 16" fill="none" xmlns="http://www.w3.org/2000/svg">
<path fill-rule="evenodd" clip-rule="evenodd" d="M15.4002 0.700195H2.6002C1.27837 0.700195 0.200195 1.77837 0.200195 3.1002V12.7002C0.200195 14.022 1.27837 15.1002 2.6002 15.1002H15.4002C16.722 15.1002 17.8002 14.022 17.8002 12.7002V3.1002C17.8002 1.77837 16.722 0.700195 15.4002 0.700195ZM1.8002 3.1002C1.8002 2.66202 2.16202 2.3002 2.6002 2.3002H15.4002C15.8384 2.3002 16.2002 2.66202 16.2002 3.1002V12.7002C16.2002 13.1384 15.8384 13.5002 15.4002 13.5002H2.6002C2.16202 13.5002 1.8002 13.1384 1.8002 12.7002V3.1002Z" fill="black"/>
<path d="M8.99978 7.72335L1.45855 2.44449C1.09659 2.19112 0.597762 2.27914 0.34439 2.6411C0.0910186 3.00306 0.179046 3.50189 0.541006 3.75526L8.54101 9.35526C8.81646 9.54808 9.18309 9.54808 9.45855 9.35526L17.4585 3.75526C17.8205 3.50189 17.9085 3.00306 17.6552 2.6411C17.4018 2.27914 16.903 2.19112 16.541 2.44449L8.99978 7.72335Z" fill="black"/>
</svg>
