<svg width="60" height="60" viewBox="0 0 60 60" fill="none" xmlns="http://www.w3.org/2000/svg">
<path fill-rule="evenodd" clip-rule="evenodd" d="M59.0323 30.9677H7.74194V23.2258H12.5806C13.1151 23.2258 13.5484 22.7925 13.5484 22.2581V16.4516H15.4839V17.4194C15.4839 17.9538 15.9172 18.3871 16.4516 18.3871H19.5892C19.7381 18.8294 19.9162 19.2608 20.1232 19.679L17.9032 21.8971C17.5252 22.2751 17.5252 22.8875 17.9032 23.2655L21.2506 26.6129C21.6353 26.9753 22.2354 26.9753 22.62 26.6129L24.8371 24.3948C25.2553 24.6013 25.6872 24.7795 26.129 24.9279V28.0645C26.129 28.5989 26.5623 29.0323 27.0968 29.0323H32.9032C33.4377 29.0323 33.871 28.5989 33.871 28.0645V24.9279C34.3133 24.7785 34.7447 24.5999 35.1629 24.393L37.38 26.6129C37.5614 26.7948 37.8076 26.8969 38.0647 26.8969C38.3217 26.8969 38.5679 26.7948 38.7494 26.6129L42.0968 23.2655C42.4748 22.8875 42.4748 22.2751 42.0968 21.8971L39.8787 19.679C40.0852 19.2608 40.2629 18.8294 40.4108 18.3871H43.5484C44.0828 18.3871 44.5161 17.9538 44.5161 17.4194V11.6129C44.5161 11.0785 44.0828 10.6452 43.5484 10.6452H40.4108C40.2619 10.2029 40.0838 9.77145 39.8768 9.35326L42.0968 7.13521C42.4748 6.75718 42.4748 6.14478 42.0968 5.76676L38.7494 2.41935C38.3647 2.05692 37.7646 2.05692 37.38 2.41935L35.1629 4.6393C34.7447 4.43233 34.3133 4.25372 33.871 4.1044V0.967742C33.871 0.43331 33.4377 0 32.9032 0H27.0968C26.5623 0 26.129 0.43331 26.129 0.967742V4.1044C25.6867 4.25372 25.2553 4.43233 24.8371 4.6393L22.62 2.41935C22.4386 2.23743 22.1924 2.13536 21.9353 2.13536C21.6783 2.13536 21.4321 2.23743 21.2506 2.41935L17.9032 5.76676C17.5252 6.14478 17.5252 6.75718 17.9032 7.13521L20.1213 9.35326C19.9148 9.77145 19.7371 10.2029 19.5892 10.6452H16.4516C15.9172 10.6452 15.4839 11.0785 15.4839 11.6129V14.5161H12.5806C12.0462 14.5161 11.6129 14.9494 11.6129 15.4839V21.2903H6.77419C6.23976 21.2903 5.80645 21.7236 5.80645 22.2581V30.9677H0.967742C0.43331 30.9677 0 31.4011 0 31.9355V58.0645C0 58.5989 0.43331 59.0323 0.967742 59.0323H59.0323C59.5667 59.0323 60 58.5989 60 58.0645V31.9355C60 31.4011 59.5667 30.9677 59.0323 30.9677ZM17.4194 12.5806H20.3098C20.7516 12.5806 21.1377 12.282 21.2478 11.8539C21.4448 11.0875 21.7487 10.3531 22.1508 9.67175C22.3753 9.29136 22.3138 8.80702 22.0015 8.49468L19.9587 6.45098L21.9358 4.47392L23.9785 6.51761C24.2909 6.82995 24.7752 6.89138 25.1556 6.66693C25.837 6.26481 26.5723 5.9605 27.3387 5.76392C27.7663 5.65335 28.065 5.26777 28.0645 4.82595V1.93548H31.9355V4.82595C31.935 5.26777 32.2337 5.65335 32.6613 5.76392C33.4277 5.9605 34.163 6.26481 34.8444 6.66693C35.2248 6.89138 35.7091 6.82995 36.0215 6.51761L38.0642 4.47392L40.0413 6.45098L37.9985 8.49468C37.6862 8.80702 37.6247 9.29136 37.8492 9.67175C38.2513 10.3531 38.5552 11.0875 38.7522 11.8539C38.8623 12.282 39.2484 12.5806 39.6902 12.5806H42.5806V16.4516H39.6902C39.2484 16.4516 38.8623 16.7503 38.7522 17.1784C38.5552 17.9448 38.2513 18.6791 37.8492 19.3605C37.6247 19.7409 37.6862 20.2252 37.9985 20.5376L40.0413 22.5813L38.0642 24.5583L36.0215 22.5146C35.7091 22.2023 35.2248 22.1409 34.8444 22.3653C34.163 22.7675 33.4277 23.0718 32.6613 23.2683C32.2337 23.3789 31.935 23.7645 31.9355 24.2063V27.0968H28.0645V24.2063C28.065 23.7645 27.7663 23.3789 27.3387 23.2683C26.5723 23.0718 25.837 22.7675 25.1556 22.3653C24.7752 22.1409 24.2909 22.2023 23.9785 22.5146L21.9358 24.5583L19.9587 22.5813L22.0015 20.5376C22.3138 20.2252 22.3753 19.7409 22.1508 19.3605C21.7487 18.6791 21.4448 17.9448 21.2478 17.1784C21.1377 16.7503 20.7516 16.4516 20.3098 16.4516H17.4194V12.5806ZM1.93548 57.0968H58.0645V32.9032H1.93548V57.0968Z" fill="#231F20"/>
<path fill-rule="evenodd" clip-rule="evenodd" d="M40.6453 56.129H19.3549C18.8205 56.129 18.3872 55.6957 18.3872 55.1612V51.2903C18.3872 50.7558 18.8205 50.3225 19.3549 50.3225H40.6453C41.1797 50.3225 41.613 50.7558 41.613 51.2903V55.1612C41.613 55.6957 41.1797 56.129 40.6453 56.129ZM39.6775 52.258H20.3227V54.1935H39.6775V52.258Z" fill="#231F20"/>
<path fill-rule="evenodd" clip-rule="evenodd" d="M3.87109 39.6773V35.8064C3.87109 35.2719 4.3044 34.8386 4.83884 34.8386H8.7098C9.24424 34.8386 9.67755 35.2719 9.67755 35.8064V39.6773C9.67755 40.2118 9.24424 40.6451 8.7098 40.6451H4.83884C4.3044 40.6451 3.87109 40.2118 3.87109 39.6773ZM7.74206 36.7741H5.80658V38.7096H7.74206V36.7741Z" fill="#231F20"/>
<path fill-rule="evenodd" clip-rule="evenodd" d="M16.4515 40.6451H12.5805C12.0461 40.6451 11.6128 40.2118 11.6128 39.6773V35.8064C11.6128 35.2719 12.0461 34.8386 12.5805 34.8386H16.4515C16.9859 34.8386 17.4192 35.2719 17.4192 35.8064V39.6773C17.4192 40.2118 16.9859 40.6451 16.4515 40.6451ZM15.4838 36.7741H13.5483V38.7096H15.4838V36.7741Z" fill="#231F20"/>
<path fill-rule="evenodd" clip-rule="evenodd" d="M4.83884 42.5806H8.7098C9.24424 42.5806 9.67755 43.0139 9.67755 43.5483V47.4193C9.67755 47.9537 9.24424 48.387 8.7098 48.387H4.83884C4.3044 48.387 3.87109 47.9537 3.87109 47.4193V43.5483C3.87109 43.0139 4.3044 42.5806 4.83884 42.5806ZM5.80658 46.4515H7.74206V44.5161H5.80658V46.4515Z" fill="#231F20"/>
<path fill-rule="evenodd" clip-rule="evenodd" d="M16.4515 48.387H12.5805C12.0461 48.387 11.6128 47.9537 11.6128 47.4193V43.5483C11.6128 43.0139 12.0461 42.5806 12.5805 42.5806H16.4515C16.9859 42.5806 17.4192 43.0139 17.4192 43.5483V47.4193C17.4192 47.9537 16.9859 48.387 16.4515 48.387ZM15.4838 44.5161H13.5483V46.4515H15.4838V44.5161Z" fill="#231F20"/>
<path fill-rule="evenodd" clip-rule="evenodd" d="M24.1937 40.6451H20.3227C19.7883 40.6451 19.355 40.2118 19.355 39.6773V35.8064C19.355 35.2719 19.7883 34.8386 20.3227 34.8386H24.1937C24.7281 34.8386 25.1614 35.2719 25.1614 35.8064V39.6773C25.1614 40.2118 24.7281 40.6451 24.1937 40.6451ZM23.2259 36.7741H21.2905V38.7096H23.2259V36.7741Z" fill="#231F20"/>
<path fill-rule="evenodd" clip-rule="evenodd" d="M31.9354 40.6451H28.0644C27.53 40.6451 27.0967 40.2118 27.0967 39.6773V35.8064C27.0967 35.2719 27.53 34.8386 28.0644 34.8386H31.9354C32.4698 34.8386 32.9031 35.2719 32.9031 35.8064V39.6773C32.9031 40.2118 32.4698 40.6451 31.9354 40.6451ZM30.9676 36.7741H29.0322V38.7096H30.9676V36.7741Z" fill="#231F20"/>
<path fill-rule="evenodd" clip-rule="evenodd" d="M24.1937 48.387H20.3227C19.7883 48.387 19.355 47.9537 19.355 47.4193V43.5483C19.355 43.0139 19.7883 42.5806 20.3227 42.5806H24.1937C24.7281 42.5806 25.1614 43.0139 25.1614 43.5483V47.4193C25.1614 47.9537 24.7281 48.387 24.1937 48.387ZM23.2259 44.5161H21.2905V46.4515H23.2259V44.5161Z" fill="#231F20"/>
<path fill-rule="evenodd" clip-rule="evenodd" d="M31.9354 48.387H28.0644C27.53 48.387 27.0967 47.9537 27.0967 47.4193V43.5483C27.0967 43.0139 27.53 42.5806 28.0644 42.5806H31.9354C32.4698 42.5806 32.9031 43.0139 32.9031 43.5483V47.4193C32.9031 47.9537 32.4698 48.387 31.9354 48.387ZM30.9676 44.5161H29.0322V46.4515H30.9676V44.5161Z" fill="#231F20"/>
<path fill-rule="evenodd" clip-rule="evenodd" d="M39.6776 40.6451H35.8066C35.2722 40.6451 34.8389 40.2118 34.8389 39.6773V35.8064C34.8389 35.2719 35.2722 34.8386 35.8066 34.8386H39.6776C40.212 34.8386 40.6453 35.2719 40.6453 35.8064V39.6773C40.6453 40.2118 40.212 40.6451 39.6776 40.6451ZM38.7098 36.7741H36.7744V38.7096H38.7098V36.7741Z" fill="#231F20"/>
<path fill-rule="evenodd" clip-rule="evenodd" d="M47.4193 40.6451H43.5483C43.0139 40.6451 42.5806 40.2118 42.5806 39.6773V35.8064C42.5806 35.2719 43.0139 34.8386 43.5483 34.8386H47.4193C47.9537 34.8386 48.387 35.2719 48.387 35.8064V39.6773C48.387 40.2118 47.9537 40.6451 47.4193 40.6451ZM46.4515 36.7741H44.5161V38.7096H46.4515V36.7741Z" fill="#231F20"/>
<path fill-rule="evenodd" clip-rule="evenodd" d="M39.6776 48.387H35.8066C35.2722 48.387 34.8389 47.9537 34.8389 47.4193V43.5483C34.8389 43.0139 35.2722 42.5806 35.8066 42.5806H39.6776C40.212 42.5806 40.6453 43.0139 40.6453 43.5483V47.4193C40.6453 47.9537 40.212 48.387 39.6776 48.387ZM38.7098 44.5161H36.7744V46.4515H38.7098V44.5161Z" fill="#231F20"/>
<path fill-rule="evenodd" clip-rule="evenodd" d="M47.4193 48.387H43.5483C43.0139 48.387 42.5806 47.9537 42.5806 47.4193V43.5483C42.5806 43.0139 43.0139 42.5806 43.5483 42.5806H47.4193C47.9537 42.5806 48.387 43.0139 48.387 43.5483V47.4193C48.387 47.9537 47.9537 48.387 47.4193 48.387ZM46.4515 44.5161H44.5161V46.4515H46.4515V44.5161Z" fill="#231F20"/>
<path fill-rule="evenodd" clip-rule="evenodd" d="M55.1615 40.6451H51.2905C50.7561 40.6451 50.3228 40.2118 50.3228 39.6773V35.8064C50.3228 35.2719 50.7561 34.8386 51.2905 34.8386H55.1615C55.6959 34.8386 56.1292 35.2719 56.1292 35.8064V39.6773C56.1292 40.2118 55.6959 40.6451 55.1615 40.6451ZM54.1937 36.7741H52.2582V38.7096H54.1937V36.7741Z" fill="#231F20"/>
<path fill-rule="evenodd" clip-rule="evenodd" d="M55.1615 48.387H51.2905C50.7561 48.387 50.3228 47.9537 50.3228 47.4193V43.5483C50.3228 43.0139 50.7561 42.5806 51.2905 42.5806H55.1615C55.6959 42.5806 56.1292 43.0139 56.1292 43.5483V47.4193C56.1292 47.9537 55.6959 48.387 55.1615 48.387ZM54.1937 44.5161H52.2582V46.4515H54.1937V44.5161Z" fill="#231F20"/>
<path fill-rule="evenodd" clip-rule="evenodd" d="M34.8386 14.5162C34.8386 17.1884 32.672 19.3549 29.9998 19.3549C27.3286 19.3516 25.1644 17.1874 25.1611 14.5162C25.1611 11.844 27.3277 9.67749 29.9998 9.67749C32.672 9.67749 34.8386 11.844 34.8386 14.5162ZM32.9031 14.5162C32.9031 12.9129 31.6031 11.613 29.9998 11.613C28.3965 11.613 27.0966 12.9129 27.0966 14.5162C27.0966 16.1195 28.3965 17.4194 29.9998 17.4194C31.6031 17.4194 32.9031 16.1195 32.9031 14.5162Z" fill="#231F20"/>
<path d="M43.5483 54.1935H51.2902C51.8247 54.1935 52.258 53.7602 52.258 53.2258C52.258 52.6914 51.8247 52.2581 51.2902 52.2581H43.5483C43.0139 52.2581 42.5806 52.6914 42.5806 53.2258C42.5806 53.7602 43.0139 54.1935 43.5483 54.1935Z" fill="#231F20"/>
<path d="M55.1611 52.2581H54.1933C53.6589 52.2581 53.2256 52.6914 53.2256 53.2258C53.2256 53.7602 53.6589 54.1935 54.1933 54.1935H55.1611C55.6955 54.1935 56.1288 53.7602 56.1288 53.2258C56.1288 52.6914 55.6955 52.2581 55.1611 52.2581Z" fill="#231F20"/>
</svg>
