<svg width="160" height="160" viewBox="0 0 160 160" fill="none" xmlns="http://www.w3.org/2000/svg">
<path fill-rule="evenodd" clip-rule="evenodd" d="M80 160C124.183 160 160 124.183 160 80C160 35.8172 124.183 0 80 0C35.8172 0 0 35.8172 0 80C0 124.183 35.8172 160 80 160Z" fill="#A4E9FB"/>
<path d="M79.8628 94.0078C87.6749 94.0078 94.0079 87.6748 94.0079 79.8627C94.0079 72.0506 87.6749 65.7177 79.8628 65.7177C72.0507 65.7177 65.7178 72.0506 65.7178 79.8627C65.7178 87.6748 72.0507 94.0078 79.8628 94.0078Z" fill="white"/>
<path d="M96.5801 59.2881H63.1463C61.0194 59.2881 59.2886 61.0189 59.2886 63.1458V65.7177H61.8604V63.1458C61.8604 62.436 62.4365 61.8599 63.1463 61.8599H96.5801C97.2899 61.8599 97.866 62.436 97.866 63.1458V65.7177H100.438V63.1458C100.438 61.0189 98.707 59.2881 96.5801 59.2881Z" fill="#24262B"/>
<path d="M61.8604 96.5795V69.5753H59.2886V96.5795C59.2886 98.7064 61.0194 100.437 63.1463 100.437H65.7182V97.8655H63.1463C62.4365 97.8655 61.8604 97.2894 61.8604 96.5795Z" fill="#24262B"/>
<rect x="69.5757" y="97.8655" width="20.5746" height="2.57183" fill="#24262B"/>
<path d="M97.8656 96.5795C97.8656 97.2894 97.2895 97.8655 96.5796 97.8655H94.0078V100.437H96.5796C98.7065 100.437 100.437 98.7064 100.437 96.5795V69.5753H97.8656V96.5795Z" fill="#24262B"/>
<path fill-rule="evenodd" clip-rule="evenodd" d="M76.0054 70.8612V73.433H73.4336V86.2922H76.0054V88.864H78.5773V86.2922H81.1491V88.864H83.7209V86.0556C85.2139 85.5232 86.2927 84.1087 86.2927 82.4344C86.2927 81.4469 85.9198 80.5454 85.3077 79.8626C85.9198 79.1798 86.2927 78.2784 86.2927 77.2908C86.2927 75.6165 85.2139 74.202 83.7209 73.6696V70.8612H81.1491V73.433H78.5773V70.8612H76.0054ZM82.435 83.7204H76.0054V81.1485H82.435C83.1448 81.1485 83.7209 81.7246 83.7209 82.4344C83.7209 83.1443 83.1448 83.7204 82.435 83.7204ZM76.0054 78.5767H82.435C83.1448 78.5767 83.7209 78.0006 83.7209 77.2908C83.7209 76.581 83.1448 76.0049 82.435 76.0049H76.0054V78.5767Z" fill="#24262B"/>
<path d="M68.2896 79.8627C68.2896 73.4807 73.4808 68.2895 79.8628 68.2895C82.5247 68.2895 85.1261 69.2179 87.1836 70.9025L88.8141 68.9132C86.2963 66.8531 83.1175 65.7177 79.8628 65.7177C72.0638 65.7177 65.7178 72.0636 65.7178 79.8627C65.7178 83.1174 66.8532 86.2962 68.9133 88.814L70.9026 87.1834C69.218 85.126 68.2896 82.5246 68.2896 79.8627Z" fill="#24262B"/>
<path d="M79.8629 91.4359C77.201 91.4359 74.5996 90.5074 72.5422 88.8229L70.9116 90.8122C73.4294 92.8722 76.6082 94.0077 79.8629 94.0077C87.662 94.0077 94.0079 87.6617 94.0079 79.8626C94.0079 76.608 92.8725 73.4292 90.8124 70.9114L88.8231 72.5419C90.5077 74.5994 91.4361 77.2008 91.4361 79.8626C91.4361 86.2446 86.2449 91.4359 79.8629 91.4359Z" fill="#24262B"/>
<path fill-rule="evenodd" clip-rule="evenodd" d="M108.145 106.327C110.149 105.14 112.772 105.391 114.49 107.109L118.199 110.82C120.233 112.854 120.233 116.165 118.199 118.2C117.181 119.217 115.845 119.726 114.509 119.726C113.172 119.726 111.836 119.217 110.819 118.2L107.11 114.491C105.392 112.772 105.143 110.149 106.328 108.146L104.304 106.122C103.488 106.606 102.573 106.866 101.651 106.866C100.314 106.866 98.978 106.356 97.9609 105.339L94.2523 101.631C92.218 99.5964 92.218 96.2851 94.2523 94.2508C95.1974 93.3082 96.4756 92.7797 97.8516 92.7617L97.8837 95.3335C97.3861 95.34 96.6685 95.4724 96.0693 96.0704C95.038 97.1017 95.038 98.7798 96.0706 99.8124L99.7792 103.521C100.48 104.222 101.475 104.435 102.368 104.185L100.816 102.632L102.634 100.814L104.185 102.365C104.435 101.473 104.222 100.477 103.521 99.7764L102.102 98.3567L103.92 96.5385L105.339 97.9581C106.324 98.9431 106.867 100.253 106.867 101.647C106.867 102.602 106.596 103.506 106.121 104.303L108.145 106.327ZM112.636 116.379C113.668 117.411 115.346 117.413 116.379 116.379C117.412 115.348 117.412 113.668 116.379 112.636L112.67 108.927C112.155 108.41 111.476 108.153 110.798 108.153C110.556 108.153 110.317 108.198 110.082 108.263L111.633 109.814L109.814 111.633L108.264 110.082C108.013 110.974 108.226 111.969 108.927 112.67L112.636 116.379Z" fill="#24262B"/>
<path fill-rule="evenodd" clip-rule="evenodd" d="M48.9265 54.1432C47.5892 54.1432 46.2531 53.634 45.236 52.6168L41.5287 48.9069C39.4944 46.8726 39.4944 43.5614 41.5287 41.5271C43.563 39.4928 46.8742 39.4928 48.9085 41.5271L52.6171 45.2357C54.3351 46.9549 54.5846 49.5782 53.399 51.5804L55.423 53.6044C56.2202 53.1299 57.1255 52.8586 58.0784 52.8586C59.4723 52.8586 60.7814 53.4012 61.7651 54.3888L63.1848 55.8085L61.3665 57.6267L59.9468 56.2071C59.246 55.505 58.2507 55.2928 57.3583 55.5436L58.9091 57.0944L57.0908 58.9127L55.54 57.3618C55.2892 58.2543 55.5027 59.2496 56.2035 59.9504L59.9121 63.659C60.9447 64.6916 62.6228 64.6928 63.6554 63.659C64.2521 63.061 64.3845 62.3435 64.391 61.8458L66.9628 61.878C66.9461 63.2539 66.4163 64.5334 65.475 65.476C64.4565 66.4944 63.1205 67.0036 61.7831 67.0036C60.4471 67.0036 59.111 66.4944 58.0938 65.4773L54.3852 61.7687C52.6673 60.0494 52.4178 57.4261 53.6034 55.424L51.5794 53.3999C50.7628 53.8834 49.8485 54.1432 48.9265 54.1432ZM45.218 42.5725C44.5416 42.5725 43.8626 42.831 43.347 43.3467C42.3144 44.378 42.3144 46.0574 43.347 47.09L47.0555 50.7985C47.7564 51.4994 48.7517 51.7128 49.6441 51.4621L48.092 49.91L49.9103 48.0917L51.4624 49.6438C51.7131 48.7514 51.4997 47.7561 50.7988 47.0552L47.0903 43.3467C46.5746 42.8297 45.8956 42.5725 45.218 42.5725Z" fill="#24262B"/>
<path fill-rule="evenodd" clip-rule="evenodd" d="M101.631 65.4746C100.614 66.4918 99.2778 67.001 97.9417 67.001C96.6043 67.001 95.267 66.4931 94.2498 65.4733C93.3073 64.5282 92.7787 63.25 92.7607 61.8741L95.3326 61.8419C95.339 62.3396 95.4715 63.0571 96.0694 63.6563C97.1007 64.6876 98.7801 64.6876 99.8114 63.6551L103.52 59.9465C104.221 59.2457 104.434 58.2504 104.184 57.3579L102.633 58.9087L100.814 57.0905L102.365 55.5396C101.474 55.2889 100.478 55.5024 99.7767 56.2032L98.357 57.6228L96.5388 55.8045L97.9584 54.3849C98.9434 53.3999 100.254 52.8572 101.648 52.8572C102.601 52.8572 103.506 53.1286 104.303 53.6031L106.327 51.579C105.142 49.5769 105.39 46.9536 107.109 45.2343L110.818 41.5257C112.852 39.4914 116.163 39.4914 118.197 41.5257C120.232 43.5601 120.232 46.8713 118.197 48.9056L114.489 52.6142C113.472 53.6313 112.136 54.1406 110.798 54.1406C109.878 54.1406 108.962 53.8808 108.145 53.3973L106.121 55.4213C107.307 57.4235 107.059 60.0468 105.34 61.766L101.631 65.4746ZM112.637 43.3453L108.929 47.0539C108.228 47.7547 108.014 48.7513 108.265 49.6424L109.816 48.0916L111.634 49.9099L110.083 51.4607C110.977 51.7115 111.972 51.498 112.672 50.7972L116.38 47.0886C117.413 46.056 117.413 44.3779 116.38 43.3453C115.865 42.8284 115.186 42.5712 114.509 42.5712C113.832 42.5712 113.153 42.8297 112.637 43.3453Z" fill="#24262B"/>
<path fill-rule="evenodd" clip-rule="evenodd" d="M61.8447 95.3323L61.8768 92.7605C63.2527 92.7785 64.5309 93.307 65.4722 94.247C67.5078 96.2826 67.5078 99.5939 65.4735 101.628L61.7649 105.337C60.7478 106.354 59.4117 106.863 58.0744 106.863C57.1536 106.863 56.2381 106.603 55.4215 106.12L53.3975 108.144C54.5831 110.146 54.3349 112.769 52.6157 114.489L48.9071 118.197C47.8899 119.214 46.5538 119.724 45.2165 119.724C43.8804 119.724 42.5444 119.214 41.5272 118.197C39.4929 116.163 39.4929 112.852 41.5272 110.817L45.2358 107.109C46.9538 105.391 49.5783 105.14 51.5805 106.327L53.6045 104.303C53.13 103.506 52.8587 102.6 52.8587 101.647C52.8587 100.254 53.4013 98.9445 54.3876 97.9582L55.8073 96.5385L57.6256 98.3568L56.2059 99.7765C55.5051 100.477 55.2916 101.473 55.5424 102.365L57.0932 100.814L58.9115 102.632L57.3607 104.183C58.2544 104.434 59.2497 104.221 59.9492 103.52L63.6578 99.8112C64.6904 98.7786 64.6904 97.1005 63.6578 96.0679C63.0599 95.4712 62.3423 95.3388 61.8447 95.3323ZM47.0888 116.38L50.7974 112.672C51.4982 111.971 51.7117 110.974 51.4609 110.083L49.9101 111.634L48.0918 109.816L49.6426 108.265C49.4073 108.199 49.1681 108.154 48.9264 108.154C48.2487 108.154 47.5697 108.413 47.0541 108.928L43.3455 112.637C42.3129 113.669 42.3129 115.348 43.3455 116.38C44.3794 117.414 46.0575 117.413 47.0888 116.38Z" fill="#24262B"/>
</svg>
