<svg width="160" height="160" viewBox="0 0 160 160" fill="none" xmlns="http://www.w3.org/2000/svg">
<path fill-rule="evenodd" clip-rule="evenodd" d="M80 160C124.183 160 160 124.183 160 80C160 35.8172 124.183 0 80 0C35.8172 0 0 35.8172 0 80C0 124.183 35.8172 160 80 160Z" fill="#A4E9FB"/>
<path d="M79.8639 91.4366C90.5168 91.4366 99.1527 82.8007 99.1527 72.1479C99.1527 61.495 90.5168 52.8591 79.8639 52.8591C69.2111 52.8591 60.5752 61.495 60.5752 72.1479C60.5752 82.8007 69.2111 91.4366 79.8639 91.4366Z" fill="white"/>
<path fill-rule="evenodd" clip-rule="evenodd" d="M117.155 78.8141V68.0522C118.648 67.5199 119.727 66.1054 119.727 64.4311C119.727 62.3042 117.996 60.5734 115.869 60.5734C115.427 60.5734 115.008 60.6634 114.612 60.801L108.85 53.5973C109.217 53.0096 109.44 52.3191 109.44 51.5732C109.44 49.4463 107.709 47.7155 105.582 47.7155C104.501 47.7155 103.526 48.1656 102.824 48.8844L92.687 44.2062C92.691 44.1656 92.6966 44.1256 92.7022 44.0856C92.7126 44.0106 92.723 43.9358 92.723 43.8577C92.723 41.7308 90.9922 40 88.8653 40C87.191 40 85.7765 41.0789 85.2441 42.5718H70.6258C70.0935 41.0789 68.679 40 67.0047 40C64.8778 40 63.147 41.7308 63.147 43.8577C63.147 43.979 63.1633 44.0966 63.1797 44.2139C63.1848 44.2508 63.1899 44.2876 63.1945 44.3245L56.8164 47.5136C56.122 46.8462 55.1833 46.4296 54.1456 46.4296C52.0187 46.4296 50.2878 48.1604 50.2878 50.2873C50.2878 51.0332 50.5103 51.7237 50.8768 52.3139L45.1146 59.5163C44.7185 59.3787 44.3006 59.2887 43.8582 59.2887C41.7313 59.2887 40.0005 61.0196 40.0005 63.1465C40.0005 64.8207 41.0794 66.2352 42.5723 66.7676V74.9576C41.0794 75.4887 40.0005 76.9032 40.0005 78.5775C40.0005 80.7044 41.7313 82.4352 43.8582 82.4352C45.2869 82.4352 46.5214 81.6456 47.1888 80.4896L54.2086 81.7665C54.5056 83.599 56.0873 85.007 58.0033 85.007C58.0326 85.007 58.0603 85.003 58.0879 84.9991H58.088H58.088H58.088H58.0881L58.0882 84.9991C58.1102 84.9959 58.1323 84.9927 58.155 84.9916L60.6086 91.1254C59.8062 91.834 59.2892 92.8563 59.2892 94.0084C59.2892 96.1353 61.0201 97.8662 63.147 97.8662C64.4406 97.8662 65.5812 97.2207 66.2807 96.2408L77.3165 99.3939C77.4155 100.96 78.4442 102.267 79.8639 102.773V112.249C78.3709 112.782 77.292 114.196 77.292 115.87C77.292 117.997 79.0229 119.728 81.1498 119.728C83.2767 119.728 85.0075 117.997 85.0075 115.87C85.0075 114.196 83.9286 112.782 82.4357 112.249V102.773C83.9286 102.241 85.0075 100.826 85.0075 99.1521C85.0075 97.9202 84.416 96.8323 83.5133 96.1263L85.0487 91.5202L96.5872 95.3664C96.618 97.0085 97.6802 98.3895 99.1513 98.9142V112.248C97.6584 112.78 96.5795 114.195 96.5795 115.869C96.5795 117.996 98.3103 119.727 100.437 119.727C102.564 119.727 104.295 117.996 104.295 115.869C104.295 114.195 103.216 112.78 101.723 112.248V98.9155C103.216 98.3831 104.295 96.9686 104.295 95.2944C104.295 94.825 104.199 94.3801 104.044 93.9634L113.911 85.7413C114.487 86.0833 115.152 86.2929 115.869 86.2929C117.996 86.2929 119.727 84.5621 119.727 82.4352C119.727 80.7609 118.648 79.3464 117.155 78.8141ZM61.8533 81.0773C61.8511 80.9405 61.8326 80.8088 61.8141 80.6767L61.807 80.6259L72.3554 75.1569L75.6178 85.6667L61.8533 81.0773ZM57.2009 63.7663L58.9832 77.433C59.6081 77.5989 60.1701 77.9101 60.6304 78.3383L71.5826 72.6597L69.4235 65.7016C67.883 65.6399 66.5726 64.6806 66.0133 63.3252L57.2009 63.7663ZM47.4228 61.6805C47.3418 61.4838 47.2376 61.2986 47.1257 61.1199L52.8879 53.9175L52.9593 53.9423L52.9593 53.9423L52.9593 53.9423L52.9593 53.9423L52.9594 53.9423L52.9594 53.9423L52.9594 53.9423L52.9594 53.9423L52.9594 53.9423L52.9594 53.9423L52.9594 53.9423L52.9594 53.9423L52.9595 53.9424L52.9595 53.9424L52.9595 53.9424L52.9595 53.9424L52.9595 53.9424L52.9595 53.9424L52.9595 53.9424L52.9595 53.9424L52.9595 53.9424L52.9596 53.9424L52.9596 53.9424L52.9596 53.9424L52.9596 53.9424L52.9596 53.9424L52.9596 53.9424L52.9596 53.9424L52.9596 53.9424L52.9596 53.9424L52.9597 53.9424L52.9597 53.9424C53.0844 53.9861 53.2087 54.0296 53.3393 54.0576L54.2896 61.3372L47.4228 61.6805ZM58.0033 50.2873C58.0033 51.7841 57.1379 53.0713 55.888 53.7104L56.8666 61.2086L65.8988 60.7572C66.3772 59.1691 67.8354 58.0028 69.5765 58.0028C70.2169 58.0028 70.8123 58.1751 71.3447 58.4503L77.1261 53.0546L69.1406 47.0661C68.5285 47.475 67.7943 47.7155 67.0047 47.7155C65.967 47.7155 65.0283 47.2989 64.3339 46.6315L57.9557 49.8205C57.9603 49.8574 57.9655 49.8942 57.9706 49.931L57.9706 49.9312C57.9869 50.0484 58.0033 50.166 58.0033 50.2873ZM85.3329 45.397L79.0357 51.2736L70.8612 45.1437H85.2441C85.2558 45.1759 85.2663 45.2083 85.2766 45.2406C85.2936 45.2934 85.3105 45.3459 85.3329 45.397ZM78.5702 69.0373L88.918 63.6711L88.9106 63.6168L88.905 63.5773L88.905 63.5773C88.8851 63.4355 88.8653 63.294 88.8653 63.1465C88.8653 62.7466 88.9437 62.3672 89.0569 62.0046L79.2158 54.6234L73.1102 60.3226C73.316 60.7945 73.4343 61.3128 73.4343 61.8606C73.4343 62.4547 73.2877 63.0102 73.0472 63.5142L78.5702 69.0373ZM70.8625 61.8606C70.8625 62.5691 70.2864 63.1465 69.5765 63.1465C68.8667 63.1465 68.2906 62.5691 68.2906 61.8606C68.2906 61.152 68.8667 60.5746 69.5765 60.5746C70.2864 60.5746 70.8625 61.152 70.8625 61.8606ZM73.9011 71.4573L76.1759 70.2782L72.3464 66.4487L73.9011 71.4573ZM74.6752 73.9533L78.0829 72.1865L84.1074 78.211C83.8682 78.7138 83.7216 79.2693 83.7216 79.8634C83.7216 81.0966 84.3131 82.1832 85.2158 82.8891L83.4233 88.2668L78.6217 86.6659L74.6752 73.9533ZM86.2934 79.8634C86.2934 80.5719 86.8695 81.1493 87.5793 81.1493C88.2892 81.1493 88.8653 80.5719 88.8653 79.8634C88.8653 79.1548 88.2892 78.5775 87.5793 78.5775C86.8695 78.5775 86.2934 79.1548 86.2934 79.8634ZM87.5793 76.0056C86.9853 76.0056 86.4297 76.1509 85.9269 76.3927L80.4785 70.9443L90.0972 65.9562C90.7864 66.6017 91.7059 67.0042 92.723 67.0042C93.4406 67.0042 94.1054 66.7946 94.6815 66.4513L100.536 71.33L90.1422 76.9996C89.4581 76.3888 88.5669 76.0056 87.5793 76.0056ZM105.582 55.431C104.917 55.431 104.3 55.2471 103.754 54.9488L96.285 61.6702C96.474 62.1255 96.5808 62.6231 96.5808 63.1465C96.5808 63.6158 96.4843 64.0608 96.33 64.4774L102.965 70.0068L112.073 65.0381C112.041 64.84 112.012 64.6394 112.012 64.4324C112.012 63.6866 112.234 62.9973 112.601 62.4071L106.839 55.2034C106.442 55.341 106.025 55.431 105.582 55.431ZM113.912 79.1291L105.09 71.7763L113.308 67.2936C113.677 67.6253 114.108 67.8825 114.585 68.0522V78.8141C114.348 78.8989 114.125 79.0031 113.912 79.1291ZM92.723 64.4324C93.4328 64.4324 94.0089 63.855 94.0089 63.1465C94.0089 62.4379 93.4328 61.8606 92.723 61.8606C92.0132 61.8606 91.4371 62.4379 91.4371 63.1465C91.4371 63.855 92.0132 64.4324 92.723 64.4324ZM102.661 73.102L111.875 80.7815L91.9103 78.9658L102.661 73.102ZM115.869 65.7183C116.579 65.7183 117.155 65.1409 117.155 64.4324C117.155 63.7238 116.579 63.1465 115.869 63.1465C115.16 63.1465 114.584 63.7238 114.584 64.4324C114.584 65.1409 115.16 65.7183 115.869 65.7183ZM105.582 50.2873C106.292 50.2873 106.868 50.8647 106.868 51.5732C106.868 52.2818 106.292 52.8592 105.582 52.8592C104.872 52.8592 104.296 52.2818 104.296 51.5732C104.296 50.8647 104.872 50.2873 105.582 50.2873ZM101.744 51.3525C101.75 51.3102 101.755 51.2678 101.759 51.2248L91.6236 46.5466C90.9227 47.2654 89.9467 47.7155 88.8653 47.7155C88.2249 47.7155 87.6295 47.5445 87.0984 47.2667L81.1253 52.8411L90.5871 59.9381C91.1992 59.5292 91.9335 59.2887 92.723 59.2887C93.3878 59.2887 94.0051 59.4726 94.5503 59.7709L102.02 53.0495C101.831 52.5943 101.724 52.0966 101.724 51.5732C101.724 51.4977 101.734 51.4252 101.744 51.3525ZM88.8653 42.5718C89.5751 42.5718 90.1512 43.1492 90.1512 43.8577C90.1512 44.5663 89.5751 45.1437 88.8653 45.1437C88.1554 45.1437 87.5793 44.5663 87.5793 43.8577C87.5793 43.1492 88.1554 42.5718 88.8653 42.5718ZM68.2906 43.8577C68.2906 43.1492 67.7145 42.5718 67.0047 42.5718C66.2949 42.5718 65.7188 43.1492 65.7188 43.8577C65.7188 44.5663 66.2949 45.1437 67.0047 45.1437C67.7145 45.1437 68.2906 44.5663 68.2906 43.8577ZM54.1456 49.0014C54.8554 49.0014 55.4315 49.5788 55.4315 50.2873C55.4315 50.9959 54.8554 51.5732 54.1456 51.5732C53.4357 51.5732 52.8596 50.9959 52.8596 50.2873C52.8596 49.5788 53.4357 49.0014 54.1456 49.0014ZM45.1441 63.1465C45.1441 62.4379 44.5681 61.8606 43.8582 61.8606C43.1484 61.8606 42.5723 62.4379 42.5723 63.1465C42.5723 63.855 43.1484 64.4324 43.8582 64.4324C44.5681 64.4324 45.1441 63.855 45.1441 63.1465ZM43.8582 79.8634C43.1484 79.8634 42.5723 79.286 42.5723 78.5775C42.5723 77.8689 43.1484 77.2915 43.8582 77.2915C44.5681 77.2915 45.1441 77.8689 45.1441 78.5775C45.1441 79.286 44.5681 79.8634 43.8582 79.8634ZM45.1441 66.7663V74.9563C46.4494 75.4218 47.4266 76.5611 47.6543 77.9602L54.6728 79.2346C55.0753 78.5376 55.6784 77.9744 56.4165 77.64L54.6239 63.8936L47.536 64.2485C47.1823 65.4238 46.2938 66.3561 45.1441 66.7663ZM56.7174 81.1493C56.7174 80.4408 57.2935 79.8634 58.0033 79.8634C58.7131 79.8634 59.2892 80.4408 59.2892 81.1493C59.2892 81.8578 58.7131 82.4352 58.0033 82.4352C57.2935 82.4352 56.7174 81.8578 56.7174 81.1493ZM61.0291 83.5128C60.8825 83.7005 60.7204 83.8741 60.5417 84.031L62.9965 90.1661C63.0186 90.165 63.0405 90.1619 63.0624 90.1587L63.0626 90.1587C63.0903 90.1547 63.1183 90.1507 63.147 90.1507C65.1916 90.1507 66.853 91.7542 66.9803 93.7654L78.016 96.9185C78.2475 96.5944 78.5304 96.3128 78.8493 96.0736L76.5565 88.6886L61.0291 83.5128ZM63.147 95.2944C62.4371 95.2944 61.861 94.717 61.861 94.0084C61.861 93.2999 62.4371 92.7225 63.147 92.7225C63.8568 92.7225 64.4329 93.2999 64.4329 94.0084C64.4329 94.717 63.8568 95.2944 63.147 95.2944ZM79.8639 115.869C79.8639 116.578 80.44 117.155 81.1498 117.155C81.8596 117.155 82.4357 116.578 82.4357 115.869C82.4357 115.16 81.8596 114.583 81.1498 114.583C80.44 114.583 79.8639 115.16 79.8639 115.869ZM81.1498 100.438C80.44 100.438 79.8639 99.8606 79.8639 99.1521C79.8639 98.4436 80.44 97.8662 81.1498 97.8662C81.8596 97.8662 82.4357 98.4436 82.4357 99.1521C82.4357 99.8606 81.8596 100.438 81.1498 100.438ZM79.5591 89.6903L81.1935 94.9549L82.6093 90.7075L79.5591 89.6903ZM87.6514 83.7134C89.1713 83.6851 90.4727 82.7747 91.0745 81.472L112.145 83.3881C112.179 83.5167 112.217 83.6427 112.262 83.7661L102.396 91.9883C101.82 91.6462 101.156 91.4366 100.439 91.4366C99.2066 91.4366 98.1187 92.0281 97.4127 92.9308L85.8627 89.0808L87.6514 83.7134ZM99.1526 115.869C99.1526 116.578 99.7287 117.155 100.439 117.155C101.148 117.155 101.724 116.578 101.724 115.869C101.724 115.16 101.148 114.583 100.439 114.583C99.7287 114.583 99.1526 115.16 99.1526 115.869ZM100.439 96.5803C99.7287 96.5803 99.1526 96.0029 99.1526 95.2944C99.1526 94.5858 99.7287 94.0084 100.439 94.0084C101.148 94.0084 101.724 94.5858 101.724 95.2944C101.724 96.0029 101.148 96.5803 100.439 96.5803ZM114.584 82.4352C114.584 83.1437 115.16 83.7211 115.869 83.7211C116.579 83.7211 117.155 83.1437 117.155 82.4352C117.155 81.7267 116.579 81.1493 115.869 81.1493C115.16 81.1493 114.584 81.7267 114.584 82.4352Z" fill="#24262B"/>
<rect x="114.583" y="45.1437" width="2.57183" height="2.57183" fill="#24262B"/>
<rect x="114.583" y="50.2874" width="2.57183" height="2.57183" fill="#24262B"/>
<rect x="117.156" y="47.7155" width="2.57183" height="2.57183" fill="#24262B"/>
<rect x="112.012" y="47.7155" width="2.57183" height="2.57183" fill="#24262B"/>
<rect x="47.7163" y="87.5789" width="2.57183" height="2.57183" fill="#24262B"/>
<rect x="50.2881" y="90.1506" width="2.57183" height="2.57183" fill="#24262B"/>
<rect x="45.1445" y="90.1506" width="2.57183" height="2.57183" fill="#24262B"/>
</svg>
