<svg width="60" height="60" viewBox="0 0 60 60" fill="none" xmlns="http://www.w3.org/2000/svg">
<path fill-rule="evenodd" clip-rule="evenodd" d="M51.6211 22.4768H59.0323C59.5667 22.4768 60 22.9102 60 23.4446V36.5545C60 37.0889 59.5667 37.5222 59.0323 37.5222H51.622C51.2105 38.9119 50.6548 40.2553 49.9644 41.5297L55.2029 46.7692C55.5809 47.1467 55.5809 47.7596 55.2029 48.1376L48.1385 55.2019C47.7605 55.58 47.1481 55.58 46.7701 55.2019L41.5307 49.9635C40.2563 50.6538 38.9129 51.2095 37.5232 51.6211V59.0323C37.5232 59.5667 37.0898 60 36.5554 60H23.4455C22.9111 60 22.4778 59.5667 22.4778 59.0323V51.622C21.0881 51.2105 19.7447 50.6548 18.4703 49.9644L13.2308 55.2029C12.8533 55.5809 12.2404 55.5809 11.8624 55.2029L4.79807 48.1385C4.42005 47.7605 4.42005 47.1481 4.79807 46.7701L10.0365 41.5307C9.34618 40.2563 8.79048 38.9129 8.37891 37.5232H0.967742C0.43331 37.5232 0 37.0898 0 36.5554V23.4455C0 22.9111 0.43331 22.4778 0.967742 22.4778H8.37796C8.78953 21.0881 9.34523 19.7447 10.0356 18.4703L4.79713 13.2308C4.4191 12.8533 4.4191 12.2404 4.79713 11.8624L11.8615 4.79807C12.2395 4.42005 12.8519 4.42005 13.2299 4.79807L18.4693 10.0365C19.7437 9.34618 21.0871 8.79048 22.4768 8.37891V0.967742C22.4768 0.43331 22.9102 0 23.4446 0H36.5545C37.0889 0 37.5222 0.43331 37.5222 0.967742V8.37796C38.9119 8.78953 40.2553 9.34523 41.5297 10.0356L46.7692 4.79713C47.1467 4.4191 47.7596 4.4191 48.1376 4.79713L55.2019 11.8615C55.58 12.2395 55.58 12.8519 55.2019 13.2299L49.9635 18.4693C50.6538 19.7437 51.2095 21.0871 51.6211 22.4768ZM50.8849 35.5877H58.0645V24.4123H50.8849C50.4431 24.4128 50.0575 24.1142 49.9469 23.6865C49.5065 21.9698 48.8256 20.3245 47.9245 18.7982C47.7 18.4178 47.7619 17.9335 48.0743 17.6216L53.1493 12.5457L47.4543 6.85074L42.3784 11.9257C42.0665 12.2381 41.5822 12.3 41.2018 12.0755C39.6755 11.1744 38.0302 10.4935 36.3135 10.0531C35.8858 9.94251 35.5872 9.55692 35.5877 9.11511V1.93548H24.4123V9.11511C24.4128 9.55692 24.1142 9.94251 23.6865 10.0531C21.9698 10.4935 20.3245 11.1744 18.7982 12.0755C18.4178 12.3 17.9335 12.2381 17.6216 11.9257L12.5457 6.85074L6.85074 12.5457L11.9257 17.6216C12.2381 17.9335 12.3 18.4178 12.0755 18.7982C11.1744 20.3245 10.4935 21.9698 10.0531 23.6865C9.94251 24.1142 9.55692 24.4128 9.11511 24.4123H1.93548V35.5877H9.11511C9.55692 35.5872 9.94251 35.8858 10.0531 36.3135C10.4935 38.0302 11.1744 39.6755 12.0755 41.2018C12.3 41.5822 12.2381 42.0665 11.9257 42.3784L6.85074 47.4543L12.5457 53.1493L17.6216 48.0743C17.9335 47.7619 18.4178 47.7 18.7982 47.9245C20.3245 48.8256 21.9698 49.5065 23.6865 49.9469C24.1142 50.0575 24.4128 50.4431 24.4123 50.8849V58.0645H35.5877V50.8849C35.5872 50.4431 35.8858 50.0575 36.3135 49.9469C38.0302 49.5065 39.6755 48.8256 41.2018 47.9245C41.5822 47.7 42.0665 47.7619 42.3784 48.0743L47.4543 53.1493L53.1493 47.4543L48.0743 42.3784C47.7619 42.0665 47.7 41.5822 47.9245 41.2018C48.8256 39.6755 49.5065 38.0302 49.9469 36.3135C50.0575 35.8858 50.4431 35.5872 50.8849 35.5877Z" fill="#231F20"/>
<path fill-rule="evenodd" clip-rule="evenodd" d="M19.355 29.9999C19.355 24.1207 24.1209 19.3547 30.0001 19.3547C35.8765 19.3618 40.6382 24.1235 40.6453 29.9999C40.6453 35.8791 35.8794 40.6451 30.0001 40.6451C24.1209 40.6451 19.355 35.8791 19.355 29.9999ZM21.2905 29.9999C21.2905 34.8103 25.1898 38.7096 30.0001 38.7096C34.8081 38.7044 38.7046 34.8079 38.7098 29.9999C38.7098 25.1895 34.8105 21.2902 30.0001 21.2902C25.1898 21.2902 21.2905 25.1895 21.2905 29.9999Z" fill="#231F20"/>
<path fill-rule="evenodd" clip-rule="evenodd" d="M25.1611 30.0001C25.1611 27.3279 27.3277 25.1614 29.9998 25.1614C32.6711 25.1647 34.8352 27.3289 34.8386 30.0001C34.8386 32.6722 32.672 34.8388 29.9998 34.8388C27.3277 34.8388 25.1611 32.6722 25.1611 30.0001ZM27.0966 30.0001C27.0966 31.6034 28.3965 32.9033 29.9998 32.9033C31.6031 32.9033 32.9031 31.6034 32.9031 30.0001C32.9031 28.3968 31.6031 27.0969 29.9998 27.0969C28.3965 27.0969 27.0966 28.3968 27.0966 30.0001Z" fill="#231F20"/>
<path d="M42.5806 31.9355C42.5806 32.4699 43.0139 32.9033 43.5483 32.9033H51.2902C51.8247 32.9033 52.258 32.4699 52.258 31.9355C52.258 31.4011 51.8247 30.9678 51.2902 30.9678H43.5483C43.0139 30.9678 42.5806 31.4011 42.5806 31.9355Z" fill="#231F20"/>
<path d="M54.1933 32.9033H55.1611C55.6955 32.9033 56.1288 32.4699 56.1288 31.9355C56.1288 31.4011 55.6955 30.9678 55.1611 30.9678H54.1933C53.6589 30.9678 53.2256 31.4011 53.2256 31.9355C53.2256 32.4699 53.6589 32.9033 54.1933 32.9033Z" fill="#231F20"/>
</svg>
